<svg width="56" height="56" viewBox="0 0 56 56" fill="none" xmlns="http://www.w3.org/2000/svg">
<g filter="url(#filter0_ii_3352_2175)">
<rect width="56" height="56" rx="16" fill="url(#paint0_linear_3352_2175)"/>
<path d="M34.3732 13.0078C37.4079 13.0078 39.868 15.4679 39.868 18.5027C39.868 21.5375 37.408 23.9976 34.3732 23.9976C32.7358 23.9975 31.2664 23.2811 30.2597 22.145L23.2852 26.2154C23.4766 26.774 23.582 27.3727 23.582 27.9962C23.582 28.6199 23.4755 29.2184 23.2841 29.7771L30.2686 33.8464C31.275 32.7161 32.7407 32.0038 34.3732 32.0037C37.4079 32.0037 39.868 34.4639 39.868 37.4986C39.868 40.5334 37.408 42.9935 34.3732 42.9935C31.3384 42.9934 28.8783 40.5334 28.8783 37.4986C28.8783 36.8756 28.9829 36.2771 29.174 35.7189L22.1907 31.6496C21.1842 32.7792 19.7191 33.4911 18.0872 33.4911C15.0524 33.491 12.5923 31.031 12.5923 27.9962C12.5924 24.9615 15.0525 22.5015 18.0872 22.5014C19.7191 22.5014 21.1842 23.2134 22.1907 24.3429L29.1696 20.2692C28.9814 19.7147 28.8783 19.1207 28.8783 18.5027C28.8784 15.468 31.3385 13.0079 34.3732 13.0078Z" fill="white"/>
</g>
<defs>
<filter id="filter0_ii_3352_2175" x="0" y="-4.09985" width="56" height="60.0998" filterUnits="userSpaceOnUse" color-interpolation-filters="sRGB">
<feFlood flood-opacity="0" result="BackgroundImageFix"/>
<feBlend mode="normal" in="SourceGraphic" in2="BackgroundImageFix" result="shape"/>
<feColorMatrix in="SourceAlpha" type="matrix" values="0 0 0 0 0 0 0 0 0 0 0 0 0 0 0 0 0 0 127 0" result="hardAlpha"/>
<feOffset dy="-4.09985"/>
<feGaussianBlur stdDeviation="2.36363"/>
<feComposite in2="hardAlpha" operator="arithmetic" k2="-1" k3="1"/>
<feColorMatrix type="matrix" values="0 0 0 0 0.655688 0 0 0 0 0.560453 0 0 0 0 1 0 0 0 1 0"/>
<feBlend mode="normal" in2="shape" result="effect1_innerShadow_3352_2175"/>
<feColorMatrix in="SourceAlpha" type="matrix" values="0 0 0 0 0 0 0 0 0 0 0 0 0 0 0 0 0 0 127 0" result="hardAlpha"/>
<feOffset dy="-4.58218"/>
<feGaussianBlur stdDeviation="1.58966"/>
<feComposite in2="hardAlpha" operator="arithmetic" k2="-1" k3="1"/>
<feColorMatrix type="matrix" values="0 0 0 0 0.62408 0 0 0 0 0.667937 0 0 0 0 1 0 0 0 1 0"/>
<feBlend mode="normal" in2="effect1_innerShadow_3352_2175" result="effect2_innerShadow_3352_2175"/>
</filter>
<linearGradient id="paint0_linear_3352_2175" x1="0" y1="28" x2="56" y2="28" gradientUnits="userSpaceOnUse">
<stop stop-color="#807CF4"/>
<stop offset="1" stop-color="#3DF0ED"/>
</linearGradient>
</defs>
</svg>
