<svg width="91" height="90" viewBox="0 0 91 90" fill="none" xmlns="http://www.w3.org/2000/svg">
<rect x="0.333496" width="90" height="90" rx="45" fill="#1A2229"/>
<path opacity="0.3" fill-rule="evenodd" clip-rule="evenodd" d="M33.2391 9.98117C37.774 8.41079 42.481 7.77677 47.1092 8.00851C47.2378 8.01459 47.3663 8.02257 47.495 8.03C47.5448 8.03301 47.5946 8.03557 47.6444 8.03879C49.2151 8.13584 50.7864 8.33318 52.3485 8.63449V8.63254C55.4474 9.22935 58.4059 10.2191 61.1766 11.5398C61.2082 11.5547 61.2398 11.5697 61.2713 11.5847C61.3794 11.6366 61.4871 11.689 61.5946 11.7419C65.9696 13.8792 69.9563 16.8921 73.2606 20.7068H73.2567C74.4231 22.0511 75.5049 23.4951 76.4881 25.0359C76.5222 25.089 76.5539 25.1436 76.5877 25.197C76.6996 25.3743 76.8097 25.5532 76.9188 25.7331C76.9332 25.7568 76.9474 25.7807 76.9618 25.8044C77.0376 25.9301 77.1136 26.0564 77.1883 26.1833C77.2761 26.332 77.3643 26.4806 77.45 26.6306C77.6243 26.9361 77.7942 27.2432 77.9588 27.5515C79.0411 29.5759 79.9419 31.7115 80.6366 33.9382L80.6473 33.9724C80.6844 34.0908 80.721 34.2092 80.7567 34.3279C80.7753 34.3898 80.7941 34.4522 80.8123 34.5144C80.862 34.6828 80.9087 34.8524 80.9559 35.0212C80.9728 35.0818 80.9911 35.1421 81.0077 35.2029L81.1063 35.5691C81.1255 35.6421 81.1432 35.7157 81.1619 35.7888C81.1905 35.9005 81.2194 36.0126 81.2469 36.1247C81.2903 36.3009 81.3322 36.4775 81.3729 36.654C81.3899 36.7282 81.4081 36.8024 81.4246 36.8767C81.4683 37.0717 81.5102 37.2673 81.5506 37.4626C81.5618 37.5169 81.5719 37.5714 81.5828 37.6257C81.6012 37.7163 81.617 37.8075 81.6346 37.8982C81.6569 38.0124 81.6789 38.1266 81.7 38.2409C81.7184 38.3408 81.7362 38.4408 81.7537 38.5407C81.7844 38.7141 81.8135 38.8877 81.8416 39.0612C81.8517 39.1241 81.8622 39.1869 81.8719 39.2497C82.0815 40.5889 82.2174 41.9327 82.2782 43.2751C82.2827 43.373 82.2851 43.4711 82.2889 43.5691C82.2974 43.7975 82.3003 44.0263 82.3045 44.2546C82.3096 44.5028 82.3122 44.7513 82.3123 44.9997H82.3084C82.308 45.1668 82.3062 45.3338 82.3036 45.5007C82.2997 45.7685 82.2945 46.0361 82.285 46.3025C82.28 46.4356 82.2758 46.5688 82.2694 46.7019C82.0035 52.4436 80.4211 57.8415 77.827 62.6101C77.6995 62.8457 77.573 63.0821 77.4403 63.3152C77.3557 63.4629 77.2683 63.6093 77.1815 63.7556L77.1473 63.8142C75.1588 67.1807 72.6231 70.2632 69.5711 72.907L69.5662 72.8972C64.7552 77.0793 58.8551 80.0405 52.3475 81.2937L52.3485 81.2868C50.0196 81.7391 47.6713 81.9588 45.3348 81.9577V81.9616C45.1006 81.961 44.8666 81.9584 44.6326 81.9538C44.3751 81.9492 44.117 81.9463 43.8592 81.9362C43.7838 81.9332 43.708 81.931 43.6326 81.9275C43.1487 81.9057 42.6645 81.8737 42.1805 81.8327C42.166 81.8315 42.151 81.832 42.1366 81.8308C40.443 81.6852 38.7516 81.4168 37.0731 81.031C36.902 80.9921 36.7315 80.952 36.5614 80.9109C36.5003 80.8959 36.4388 80.8822 36.3778 80.8669C33.5394 80.1643 30.8306 79.1344 28.2938 77.8191C28.2066 77.774 28.1199 77.7271 28.033 77.6814C27.8311 77.5746 27.6322 77.4626 27.4325 77.3523C27.2925 77.2752 27.1535 77.1957 27.0145 77.1169C26.9592 77.0855 26.9036 77.0548 26.8485 77.0232C26.8267 77.0107 26.8048 76.9986 26.783 76.9861V76.9841C24.764 75.8186 22.8439 74.4576 21.0575 72.905L21.0555 72.9118C16.0461 68.5726 12.419 63.0557 10.3436 57.028L10.3328 57.0368C9.02105 53.2484 8.36941 49.339 8.3221 45.4568C8.31854 45.2079 8.31478 44.9588 8.31624 44.7097C8.31803 44.4876 8.32511 44.2655 8.33089 44.0437C8.46165 38.5774 9.7981 33.0692 12.4686 27.9294C12.4976 27.8733 12.5291 27.8184 12.5584 27.7624C12.7369 27.4231 12.922 27.0857 13.1121 26.7497C13.1623 26.6609 13.2129 26.5717 13.2635 26.4831L13.2616 26.4821C13.3793 26.2795 13.4989 26.0781 13.62 25.8777C13.7528 25.6568 13.8847 25.4348 14.0223 25.2165C14.0626 25.1528 14.1027 25.0886 14.1434 25.0251C14.4042 24.617 14.6735 24.2137 14.951 23.8152C14.9593 23.8033 14.9662 23.7899 14.9744 23.778C15.0926 23.6088 15.2146 23.4416 15.3358 23.2741C15.3458 23.2603 15.3551 23.246 15.3651 23.2321C15.5058 23.0382 15.65 22.8465 15.7948 22.655C15.8444 22.5892 15.894 22.5233 15.9442 22.4577C16.0593 22.3076 16.1752 22.158 16.2928 22.0095C16.3774 21.9023 16.4627 21.7955 16.5487 21.6892C16.6405 21.5758 16.7327 21.4627 16.826 21.3503C16.9645 21.183 17.1052 21.0174 17.2469 20.8523C17.2933 20.7984 17.3399 20.7447 17.3866 20.6911C17.6221 20.42 17.8601 20.1504 18.1043 19.8855L18.1287 19.8591C18.2127 19.7678 18.2968 19.6768 18.3817 19.5866C18.426 19.5396 18.4708 19.4928 18.5155 19.446C18.6366 19.3187 18.76 19.1934 18.8826 19.0681C18.9269 19.023 18.97 18.9763 19.0145 18.9314L19.2821 18.6638C19.3358 18.6106 19.3911 18.5584 19.4451 18.5056C19.5277 18.4249 19.6098 18.3434 19.6932 18.2634C19.824 18.1378 19.9562 18.0138 20.0887 17.8904C20.1444 17.8385 20.1996 17.7856 20.2557 17.7341C20.4027 17.5988 20.5511 17.4644 20.7 17.3318C20.7414 17.295 20.7835 17.259 20.825 17.2224C22.2574 15.9582 23.7782 14.819 25.368 13.8044C26.9133 12.8128 28.5378 11.9346 30.2293 11.1784C30.2625 11.1636 30.2958 11.1492 30.3289 11.1345C31.0688 10.8064 31.8211 10.5013 32.5858 10.2214C32.7502 10.1611 32.915 10.1025 33.0799 10.0446C33.1346 10.0255 33.1892 10.0049 33.244 9.98605L33.2391 9.98117ZM47.2332 11.4206C41.1746 11.0791 35.1358 12.3878 29.783 15.1716C29.3579 15.3936 28.9348 15.6268 28.5155 15.8689C28.206 16.0476 27.9 16.2297 27.5985 16.4167C24.4538 18.3724 21.6558 20.8328 19.3172 23.6843C18.154 25.1061 17.1165 26.6123 16.2108 28.1853L16.2078 28.1833C15.2722 29.8062 14.492 31.4766 13.8534 33.1745C12.5776 36.5848 11.8578 40.1916 11.7323 43.8464C11.4519 52.4877 14.5217 61.0329 20.4227 67.5398H20.4276C22.7935 70.1521 25.5199 72.3284 28.4832 74.0398L28.4852 74.0378C33.2547 76.7904 38.6388 78.3339 44.1317 78.5339C44.5268 78.5476 44.9217 78.5556 45.3162 78.5554C48.7493 78.5592 52.211 78.039 55.578 76.9558L55.5819 76.9577C62.2704 74.8106 68.0466 70.6341 72.1766 65.1452C76.2648 59.6964 78.5832 53.142 78.8797 46.4089C78.8995 45.942 78.9095 45.4715 78.91 44.9997H78.908C78.9068 38.1208 76.7921 31.355 72.8289 25.6872C72.3269 24.9709 71.8013 24.279 71.2537 23.612C69.0864 20.9817 66.526 18.6876 63.6629 16.8171C63.0056 16.3891 62.335 15.9847 61.6522 15.6052C60.9656 15.2239 60.2669 14.8673 59.5575 14.5359C59.5333 14.5246 59.5093 14.5129 59.4852 14.5017C55.6366 12.715 51.4747 11.6674 47.2332 11.4206Z" fill="white"/>
<path d="M33.7515 35.6411C33.7515 31.8442 36.8295 28.7661 40.6265 28.7661C44.4234 28.7661 47.5015 31.8442 47.5015 35.6411C47.5015 39.4381 44.4234 42.5161 40.6265 42.5161C36.8295 42.5161 33.7515 39.4381 33.7515 35.6411Z" fill="white"/>
<path d="M28.7515 56.8911C28.7515 50.3327 34.0681 45.0161 40.6265 45.0161C47.1848 45.0161 52.5015 50.3327 52.5015 56.8911V56.8954C52.5014 56.9617 52.5009 57.0284 52.4998 57.0943C52.4925 57.5252 52.2639 57.9219 51.8947 58.1442C48.6026 60.1263 44.7458 61.2661 40.6265 61.2661C36.5072 61.2661 32.6503 60.1263 29.3582 58.1442C28.9891 57.9219 28.7604 57.5252 28.7532 57.0943C28.752 57.0268 28.7515 56.959 28.7515 56.8911Z" fill="white"/>
<path d="M56.2515 37.5161C56.2515 36.8258 55.6918 36.2661 55.0015 36.2661C54.3111 36.2661 53.7515 36.8258 53.7515 37.5161V41.2661H50.0015C49.3111 41.2661 48.7515 41.8258 48.7515 42.5161C48.7515 43.2065 49.3111 43.7661 50.0015 43.7661H53.7515V47.5161C53.7515 48.2065 54.3111 48.7661 55.0015 48.7661C55.6918 48.7661 56.2515 48.2065 56.2515 47.5161V43.7661H60.0015C60.6918 43.7661 61.2515 43.2065 61.2515 42.5161C61.2515 41.8258 60.6918 41.2661 60.0015 41.2661H56.2515V37.5161Z" fill="white"/>
</svg>