<svg width="36" height="36" viewBox="0 0 36 36" fill="none" xmlns="http://www.w3.org/2000/svg">
<g clip-path="url(#clip0_3106_1472)">
<path d="M18 0.5C27.942 0.5 36 8.55958 36 18.5C36 28.442 27.942 36.5 18 36.5C8.05958 36.5 0 28.4412 0 18.5C0 8.55958 8.05958 0.5 18 0.5Z" fill="#52525C" fill-opacity="0.3"/>
<path fill-rule="evenodd" clip-rule="evenodd" d="M24.2504 11.9998C24.2498 11.5979 24.1611 11.201 23.9906 10.8371C23.8201 10.4731 23.5718 10.151 23.2634 9.89337C22.955 9.63571 22.5938 9.4488 22.2053 9.34578C21.8168 9.24277 21.4105 9.22615 21.0149 9.2971C20.6193 9.36806 20.2441 9.52485 19.9156 9.75646C19.5872 9.98807 19.3135 10.2889 19.1138 10.6376C18.9141 10.9864 18.7933 11.3748 18.7599 11.7753C18.7265 12.1758 18.7813 12.5787 18.9204 12.9558L12.6064 16.2298C12.2439 15.7983 11.7576 15.4887 11.2133 15.3427C10.669 15.1968 10.0929 15.2215 9.56319 15.4137C9.03344 15.6059 8.57551 15.9562 8.25138 16.4172C7.92725 16.8782 7.75257 17.4276 7.75099 17.9911C7.7494 18.5547 7.92098 19.1051 8.2425 19.5679C8.56403 20.0307 9.01998 20.3836 9.54864 20.5787C10.0773 20.7739 10.6532 20.8019 11.1983 20.659C11.7434 20.5161 12.2315 20.2092 12.5964 19.7798L18.8044 23.4588C18.6737 24.1094 18.7826 24.7854 19.1112 25.362C19.4398 25.9386 19.9658 26.377 20.5922 26.5962C21.2186 26.8154 21.9031 26.8007 22.5195 26.5548C23.1359 26.3089 23.6426 25.8483 23.9461 25.2581C24.2496 24.6679 24.3294 23.9879 24.1709 23.3435C24.0123 22.699 23.626 22.1337 23.0833 21.7517C22.5406 21.3697 21.8781 21.1969 21.2179 21.2651C20.5578 21.3333 19.9446 21.6379 19.4914 22.1228L13.2214 18.4068C13.2606 18.1396 13.2609 17.8681 13.2224 17.6008L19.8224 14.1778C20.2293 14.4912 20.7159 14.6844 21.227 14.7354C21.7381 14.7865 22.2533 14.6934 22.7142 14.4667C23.1751 14.24 23.5633 13.8888 23.8348 13.4528C24.1063 13.0168 24.2503 12.5134 24.2504 11.9998ZM21.5004 10.7498C21.8319 10.7498 22.1499 10.8815 22.3843 11.1159C22.6187 11.3503 22.7504 11.6683 22.7504 11.9998C22.7504 12.3313 22.6187 12.6493 22.3843 12.8837C22.1499 13.1181 21.8319 13.2498 21.5004 13.2498C21.1689 13.2498 20.8509 13.1181 20.6165 12.8837C20.3821 12.6493 20.2504 12.3313 20.2504 11.9998C20.2504 11.6683 20.3821 11.3503 20.6165 11.1159C20.8509 10.8815 21.1689 10.7498 21.5004 10.7498ZM10.5004 16.7498C10.8319 16.7498 11.1499 16.8815 11.3843 17.1159C11.6187 17.3503 11.7504 17.6683 11.7504 17.9998C11.7504 18.3313 11.6187 18.6493 11.3843 18.8837C11.1499 19.1181 10.8319 19.2498 10.5004 19.2498C10.1689 19.2498 9.85095 19.1181 9.61653 18.8837C9.3821 18.6493 9.25041 18.3313 9.25041 17.9998C9.25041 17.6683 9.3821 17.3503 9.61653 17.1159C9.85095 16.8815 10.1689 16.7498 10.5004 16.7498ZM21.5004 22.7498C21.8319 22.7498 22.1499 22.8815 22.3843 23.1159C22.6187 23.3503 22.7504 23.6683 22.7504 23.9998C22.7504 24.3313 22.6187 24.6493 22.3843 24.8837C22.1499 25.1181 21.8319 25.2498 21.5004 25.2498C21.1689 25.2498 20.8509 25.1181 20.6165 24.8837C20.3821 24.6493 20.2504 24.3313 20.2504 23.9998C20.2504 23.6683 20.3821 23.3503 20.6165 23.1159C20.8509 22.8815 21.1689 22.7498 21.5004 22.7498Z" fill="white"/>
</g>
<rect x="0.5" y="0.5" width="35" height="35" rx="17.5" stroke="#9FC9FF"/>
<defs>
<clipPath id="clip0_3106_1472">
<rect width="36" height="36" rx="18" fill="white"/>
</clipPath>
</defs>
</svg>