<svg width="44" height="44" viewBox="0 0 44 44" fill="none" xmlns="http://www.w3.org/2000/svg">
<path d="M22.1397 6.59875L21.8718 0L21.681 6.60132C21.4421 14.8594 14.8542 21.5249 6.59875 21.8603L0 22.1282L6.60132 22.319C14.8594 22.5579 21.5249 29.1458 21.8603 37.4013L22.1282 44L22.319 37.3987C22.5579 29.1406 29.1458 22.4751 37.4013 22.1397L44 21.8718L37.3987 21.681C29.14 21.4414 22.4744 14.8536 22.1397 6.59875Z" fill="#329EE1"/>
<path d="M5.46492 13.3504L5.53195 15L5.57957 13.3498C5.63908 11.2849 7.28614 9.61841 9.35044 9.53508L11 9.46805L9.34981 9.42044C7.28489 9.36092 5.61841 7.71386 5.53508 5.64956L5.46805 4L5.42044 5.65018C5.36092 7.71511 3.71386 9.38159 1.64956 9.46492L0 9.53195L1.65019 9.57956C3.71449 9.63908 5.38097 11.2868 5.46492 13.3504Z" fill="#329EE1"/>
</svg>
