<?xml version="1.0" encoding="UTF-8"?>


<svg xmlns="http://www.w3.org/2000/svg" xmlns:xlink="http://www.w3.org/1999/xlink" viewBox="0 0 111 32"><g><defs><radialGradient id="idss10394449924_1g690296017" cy="0.1628868643794017" cx="0.5179768041237114" r="1.0542417781223752" gradientTransform="translate(0.5179768041237114, 0.1628868643794017) scale(1 1) translate(-0.5179768041237114, -0.1628868643794017)"><stop offset="0" stop-color="rgb(29,48,59)" stop-opacity="1"></stop><stop offset="1" stop-color="rgb(22,38,51)" stop-opacity="1"></stop></radialGradient></defs><path d="M 16.045 0.523 C 7.472 0.523 0.524 7.452 0.524 16 C 0.524 24.548 7.472 31.477 16.044 31.477 C 24.615 31.477 31.564 24.548 31.564 16 C 31.564 7.452 24.616 0.523 16.045 0.523 Z" fill="url(#idss10394449924_1g690296017)" stroke="rgba(0, 0, 0, 0)" stroke-miterlimit="10"></path></g><path d="M 16.044 0.768 C 24.48 0.768 31.32 7.588 31.32 16 C 31.32 24.413 24.481 31.233 16.045 31.233 C 7.609 31.233 0.77 24.413 0.77 16 C 0.77 7.587 7.608 0.768 16.044 0.768 Z" fill="transparent" stroke-width="0.49" stroke="rgba(NaN,NaN,NaN,0.04)" stroke-miterlimit="10" stroke-dasharray=""></path><path d="M 16.045 0.523 C 7.472 0.523 0.524 7.452 0.524 16 C 0.524 24.548 7.472 31.477 16.044 31.477 C 24.615 31.477 31.564 24.548 31.564 16 C 31.564 7.452 24.616 0.523 16.045 0.523 Z" fill="transparent" stroke-width="0.8" stroke="rgb(255, 255, 255)" stroke-miterlimit="10"></path><path d="M 17.446 15.307 L 21.258 13.46 L 21.258 21.911 L 10.746 26.822 L 10.746 22.235 L 17.446 19.225 Z M 14.557 16.576 L 10.745 18.287 L 10.745 9.807 L 21.257 4.925 L 21.257 9.512 L 14.557 12.76 Z M 40.589 22.083 L 40.589 20.197 L 42.953 20.197 L 42.953 21.313 L 44.023 22.405 L 49.722 22.405 L 50.817 21.288 L 50.817 17.715 L 49.722 16.648 L 43.052 16.648 L 40.639 14.216 L 40.639 9.526 L 43.052 7.118 L 50.568 7.118 L 52.982 9.526 L 52.982 11.436 L 50.642 11.436 L 50.642 10.295 L 49.547 9.203 L 44.097 9.203 L 43.003 10.295 L 43.003 13.471 L 44.098 14.563 L 50.767 14.563 L 53.181 16.971 L 53.181 22.033 L 50.717 24.49 L 43.003 24.49 Z M 57.17 22.133 L 57.17 14.117 L 54.93 14.117 L 54.93 12.13 L 57.22 12.13 L 57.22 8.11 L 59.485 8.11 L 59.485 12.13 L 63.342 12.13 L 63.342 14.14 L 59.485 14.14 L 59.485 21.387 L 60.605 22.479 L 63.342 22.479 L 63.342 24.489 L 59.559 24.489 L 57.17 22.131 Z M 65.966 12.131 L 68.18 12.131 L 68.18 14.291 L 70.32 12.131 L 73.63 12.131 L 73.63 14.141 L 70.843 14.141 L 68.28 16.722 L 68.28 24.49 L 65.966 24.49 L 65.966 12.13 Z M 74.73 22.381 L 74.73 19.328 L 76.845 17.218 L 83.365 17.218 L 83.365 15.134 L 82.27 14.067 L 78.214 14.067 L 77.144 15.134 L 77.144 16.052 L 74.829 16.052 L 74.829 14.54 L 77.243 12.132 L 83.241 12.132 L 85.654 14.54 L 85.654 24.49 L 83.49 24.49 L 83.49 22.456 L 81.35 24.491 L 76.846 24.491 L 74.731 22.381 Z M 81.026 22.579 L 83.365 20.346 L 83.365 19.056 L 77.915 19.056 L 77.045 19.924 L 77.045 21.735 L 77.915 22.579 L 81.025 22.579 Z M 89.881 22.132 L 89.881 14.117 L 87.641 14.117 L 87.641 12.13 L 89.931 12.13 L 89.931 8.11 L 92.195 8.11 L 92.195 12.13 L 96.052 12.13 L 96.052 14.14 L 92.195 14.14 L 92.195 21.387 L 93.315 22.479 L 96.052 22.479 L 96.052 24.489 L 92.269 24.489 L 89.881 22.131 Z M 98.302 22.38 L 98.302 19.328 L 100.418 17.218 L 106.938 17.218 L 106.938 15.134 L 105.843 14.067 L 101.786 14.067 L 100.716 15.134 L 100.716 16.052 L 98.402 16.052 L 98.402 14.54 L 100.816 12.132 L 106.813 12.132 L 109.227 14.54 L 109.227 24.49 L 107.062 24.49 L 107.062 22.456 L 104.922 24.491 L 100.418 24.491 L 98.302 22.381 Z M 104.598 22.579 L 106.938 20.346 L 106.938 19.056 L 101.488 19.056 L 100.617 19.924 L 100.617 21.735 L 101.488 22.579 Z" fill="rgb(255,255,255)"></path></svg>
