<?xml version="1.0" encoding="UTF-8"?><svg id="a" xmlns="http://www.w3.org/2000/svg" xmlns:xlink="http://www.w3.org/1999/xlink" viewBox="0 0 200.03 57.99"><defs><linearGradient id="b" x1="-63.71" y1="-42.18" x2="-5.72" y2="-42.18" gradientTransform="translate(-13.19 63.71) rotate(90)" gradientUnits="userSpaceOnUse"><stop offset="0" stop-color="#fff"/><stop offset="1" stop-color="#000"/></linearGradient><linearGradient id="c" x1="-4.11" y1="17.39" x2="51.89" y2="17.39" gradientTransform="translate(46.38 5.1) rotate(90)" gradientUnits="userSpaceOnUse"><stop offset="0" stop-color="#484848"/><stop offset=".21" stop-color="#454545"/><stop offset="1" stop-color="#000"/></linearGradient></defs><path d="m72.02,42.71c-1.84-1.84-2.76-4.36-2.76-7.55h5.29c0,1.72.45,3.07,1.36,4.07.9,1,2.16,1.49,3.75,1.49h5.11c1.5,0,2.71-.33,3.64-.99s1.38-1.53,1.38-2.6v-2.02c0-.83-.32-1.52-.97-2.07s-1.56-.93-2.76-1.15l-8.37-1.43c-2.61-.43-4.61-1.29-6.01-2.58-1.4-1.29-2.09-2.93-2.09-4.92v-2.53c0-1.56.42-2.95,1.26-4.14s2.03-2.12,3.57-2.78c1.53-.66,3.31-.99,5.34-.99h5.2c1.9,0,3.58.39,5.04,1.17,1.46.78,2.58,1.89,3.38,3.34s1.2,3.1,1.2,4.97h-5.25c0-1.41-.41-2.55-1.22-3.43s-1.86-1.31-3.15-1.31h-5.2c-1.44,0-2.6.31-3.47.94-.87.63-1.31,1.48-1.31,2.55v1.66c0,.86.31,1.57.92,2.14.61.57,1.5.94,2.67,1.13l8.38,1.47c2.64.46,4.67,1.31,6.1,2.55,1.43,1.24,2.14,2.83,2.14,4.76v2.99c0,1.57-.43,2.95-1.29,4.17-.86,1.21-2.07,2.16-3.64,2.83s-3.36,1.01-5.38,1.01h-5.29c-3.19,0-5.71-.92-7.55-2.76Z" fill="#fdfdfd" stroke-width="0"/><path d="m103.91,43.35c-1.2-1.16-1.79-3.01-1.79-5.52v-11.14h-4.05v-4.56h4.19v-6.95h5.15v6.95h5.98v4.56h-5.98v10.95c0,1.01.2,1.75.6,2.21.4.46,1.03.69,1.89.69h3.5v4.56h-3.77c-2.61,0-4.51-.58-5.71-1.75Z" fill="#fdfdfd" stroke-width="0"/><path d="m118.36,22.14h4.92v3.13c.61-.95,1.5-1.73,2.65-2.32,1.15-.6,2.34-.9,3.57-.9h2.76v4.6h-2.76c-1.75,0-3.16.54-4.23,1.61s-1.61,2.47-1.61,4.19v12.65h-5.29v-22.96Z" fill="#fdfdfd" stroke-width="0"/><path d="m136.23,43.7c-1.43-1.18-2.14-2.75-2.14-4.72v-1.66c0-1.93.74-3.48,2.23-4.65,1.49-1.16,3.44-1.75,5.87-1.75h2.85c.86,0,1.78.12,2.76.37.98.25,1.86.57,2.62.97v-2.85c0-.95-.31-1.72-.92-2.3-.61-.58-1.41-.87-2.39-.87h-3.86c-1.01,0-1.83.24-2.44.71s-.92,1.1-.92,1.86h-5.15c0-2.12.78-3.82,2.35-5.11,1.57-1.29,3.62-1.93,6.17-1.93h3.86c2.58,0,4.65.7,6.21,2.09,1.56,1.4,2.35,3.24,2.35,5.55v15.69h-4.92v-2.9c-.74.98-1.66,1.77-2.76,2.37-1.1.6-2.19.9-3.27.9h-2.85c-2.33,0-4.21-.59-5.64-1.77Zm8.81-2.37c1.23,0,2.33-.35,3.31-1.04.98-.69,1.67-1.6,2.07-2.74v-1.1c-.52-.43-1.26-.78-2.21-1.04-.95-.26-1.95-.39-2.99-.39h-2.9c-.92,0-1.66.23-2.23.69-.57.46-.85,1.06-.85,1.8v1.29c0,.77.29,1.38.87,1.84s1.35.69,2.3.69h2.62Z" fill="#fdfdfd" stroke-width="0"/><path d="m165.29,43.35c-1.2-1.16-1.79-3.01-1.79-5.52v-11.14h-4.05v-4.56h4.19v-6.95h5.15v6.95h5.98v4.56h-5.98v10.95c0,1.01.2,1.75.6,2.21.4.46,1.03.69,1.89.69h3.5v4.56h-3.77c-2.61,0-4.51-.58-5.71-1.75Z" fill="#fdfdfd" stroke-width="0"/><path d="m180.59,43.7c-1.43-1.18-2.14-2.75-2.14-4.72v-1.66c0-1.93.74-3.48,2.23-4.65,1.49-1.16,3.44-1.75,5.87-1.75h2.85c.86,0,1.78.12,2.76.37.98.25,1.86.57,2.62.97v-2.85c0-.95-.31-1.72-.92-2.3-.61-.58-1.41-.87-2.39-.87h-3.86c-1.01,0-1.83.24-2.44.71s-.92,1.1-.92,1.86h-5.15c0-2.12.78-3.82,2.35-5.11,1.57-1.29,3.62-1.93,6.17-1.93h3.86c2.58,0,4.65.7,6.21,2.09,1.56,1.4,2.35,3.24,2.35,5.55v15.69h-4.92v-2.9c-.74.98-1.66,1.77-2.76,2.37-1.1.6-2.19.9-3.27.9h-2.85c-2.33,0-4.21-.59-5.64-1.77Zm8.81-2.37c1.23,0,2.33-.35,3.31-1.04.98-.69,1.67-1.6,2.07-2.74v-1.1c-.52-.43-1.26-.78-2.21-1.04-.95-.26-1.95-.39-2.99-.39h-2.9c-.92,0-1.66.23-2.23.69-.57.46-.85,1.06-.85,1.8v1.29c0,.77.29,1.38.87,1.84s1.35.69,2.3.69h2.62Z" fill="#fdfdfd" stroke-width="0"/><circle cx="29" cy="29" r="28.5" fill="#c5c5c5" stroke="url(#b)" stroke-miterlimit="10" stroke-width=".99"/><circle cx="29" cy="29" r="28" fill="url(#c)" stroke-width="0"/><polygon points="19.3 33.35 19.3 17.98 38.69 8.92 38.69 17.34 26.38 23.34 26.38 30.22 19.3 33.35" fill="#fff" stroke-width="0"/><polygon points="38.69 24.64 38.69 40.01 19.3 49.07 19.3 40.65 31.61 34.66 31.61 27.77 38.69 24.64" fill="#fff" stroke-width="0"/></svg>