<svg width="24" height="24" viewBox="0 0 24 24" fill="none" xmlns="http://www.w3.org/2000/svg">
<path d="M8.50005 11C8.00005 10.3 7.80005 9.49995 7.80005 8.59995C7.80005 6.09995 9.80005 4.19995 12.2 4.19995C14.6 4.19995 16.6 6.19995 16.6 8.59995C16.6 9.49995 16.3 10.4 15.8 11.1" stroke="currentColor" stroke-width="1.5" stroke-miterlimit="10" stroke-linecap="round" stroke-linejoin="round"/>
<path d="M16.6004 7.3999H19.9004C20.5004 7.3999 21.0004 7.8999 21.0004 8.4999V18.8999C21.0004 19.4999 20.5004 19.9999 19.9004 19.9999H4.50039C3.90039 19.9999 3.40039 19.4999 3.40039 18.8999V8.4999C3.40039 7.8999 3.90039 7.3999 4.50039 7.3999H7.80039" stroke="currentColor" stroke-width="1.5" stroke-linecap="round" stroke-linejoin="round"/>
<path d="M3.90039 11.2998H20.7004" stroke="currentColor" stroke-width="1.5" stroke-linecap="round" stroke-linejoin="round"/>
</svg>
