<svg width="20" height="20" viewBox="0 0 20 20" fill="none" xmlns="http://www.w3.org/2000/svg">
<path d="M15.75 2C16.9926 2 18 3.00736 18 4.25V15.75C18 16.9926 16.9926 18 15.75 18H4.25C3.00736 18 2 16.9926 2 15.75V4.25C2 3.00736 3.00736 2 4.25 2H15.75ZM5.75 11C5.33579 11 5 11.3358 5 11.75V14.25C5 14.6642 5.33579 15 5.75 15C6.16421 15 6.5 14.6642 6.5 14.25V11.75C6.5 11.3358 6.16421 11 5.75 11ZM8.58398 9C8.16977 9 7.83398 9.33579 7.83398 9.75V14.25C7.83398 14.6642 8.16977 15 8.58398 15C8.99797 14.9997 9.33398 14.6641 9.33398 14.25V9.75C9.33398 9.33595 8.99797 9.00026 8.58398 9ZM11.4141 7C10.9998 7 10.6641 7.33579 10.6641 7.75V14.25C10.6641 14.6642 10.9998 15 11.4141 15C11.8281 14.9997 12.1641 14.6641 12.1641 14.25V7.75C12.1641 7.33595 11.8281 7.00026 11.4141 7ZM14.25 5C13.8358 5 13.5 5.33579 13.5 5.75V14.25C13.5 14.6642 13.8358 15 14.25 15C14.6642 15 15 14.6642 15 14.25V5.75C15 5.33579 14.6642 5 14.25 5Z" fill="#90A0AC" fill-opacity="0.8"/>
</svg>
