<?xml version="1.0" encoding="UTF-8"?><svg id="a" xmlns="http://www.w3.org/2000/svg" viewBox="0 0 170 170"><circle cx="85" cy="85" r="85" fill="#fff" stroke-width="0"/><path d="m128,86.6l-63.2,36.5c-4.4,2.5-5.9,8.1-3.3,12.5,2.5,4.4,8.1,5.9,12.5,3.3l63.2-36.5c4.4-2.5,5.9-8.1,3.3-12.5-2.5-4.4-8.1-5.9-12.5-3.3Z" fill="#ed752f" stroke-width="0"/><path d="m84.3,74.9l-47.4,27.3c-4.4,2.5-5.9,8.1-3.3,12.5,2.5,4.4,8.1,5.9,12.5,3.3l47.4-27.4c4.4-2.5,5.9-8.1,3.3-12.5-2.5-4.2-8.1-5.7-12.5-3.2Z" fill="#f5be42" stroke-width="0"/><path d="m96.1,31.2l-63.2,36.5c-4.4,2.5-5.9,8.1-3.3,12.5,2.5,4.4,8.1,5.9,12.5,3.3l63.2-36.5c4.4-2.5,5.9-8.1,3.3-12.5s-8.2-5.8-12.5-3.3Z" fill="#66e5ba" stroke-width="0"/></svg>