<?xml version="1.0" encoding="UTF-8"?><svg id="a" xmlns="http://www.w3.org/2000/svg" viewBox="0 0 170.08 170.08"><path d="m85.04,0C38.07,0,0,38.07,0,85.04s38.07,85.04,85.04,85.04,85.04-38.07,85.04-85.04S132.01,0,85.04,0Zm-6.98,104.14s0-.04,0-.06c-.15.45-.32.89-.54,1.34,0,0-.27.59-.91,1.63-1.36,2.22-3.17,4.11-5.04,5.91l-22.02,21.16c-1.42,1.32-3,.88-3.47.68-.47-.17-1.99-.91-1.99-2.7v-29.11c0-4.12,2.36-7.95,6.17-10.11l11.55-6.45c-8.05-4.28-17.46-7.43-24.18-9.37-3.64-1.08-6.2-4.46-6.2-8.28v-30.53c0-1.22.67-2.27,1.68-2.84.51-.27.98-.37,1.52-.37.64,0,1.28.2,1.82.61l30.77,21.53c8.63,6.05,14.15,15.55,15.16,26,.74,7.37-.84,14.64-4.31,20.96Zm60.6-35.36c0,3.82-2.56,7.2-6.2,8.28-6.72,1.94-16.14,5.1-24.19,9.38l11.54,6.44c3.84,2.16,6.17,5.98,6.17,10.11v29.11c0,1.79-1.52,2.54-1.99,2.7-.47.2-2.06.64-3.47-.68l-22.53-21.65c-1.53-1.47-3-3.03-4.15-4.82-.92-1.41-1.28-2.23-1.28-2.23-.21-.44-.38-.87-.53-1.3,0,0,0,0,0,.01-3.47-6.32-5.05-13.59-4.31-20.96,1.01-10.45,6.54-19.95,15.16-26l30.77-21.53c.54-.41,1.18-.61,1.82-.61.54,0,1.01.1,1.52.37,1.01.57,1.69,1.62,1.69,2.84v30.53Z" fill="#2973ff" stroke-width="0"/><path d="m61.8,86.44l-11.55,6.45c-3.81,2.16-6.17,5.98-6.17,10.11v29.11c0,1.79,1.52,2.54,1.99,2.7.47.2,2.06.64,3.47-.68l22.02-21.16c1.88-1.8,3.68-3.7,5.04-5.91.64-1.04.91-1.63.91-1.63.22-.45.39-.9.54-1.34-.14-1.5-.54-2.94-1.21-4.41-2.39-5.19-8.23-9.62-15.05-13.24Z" fill="#2973ff" stroke-width="0"/><path d="m61.8,86.44l-11.55,6.45c-3.81,2.16-6.17,5.98-6.17,10.11v29.11c0,1.79,1.52,2.54,1.99,2.7.47.2,2.06.64,3.47-.68l22.02-21.16c1.88-1.8,3.68-3.7,5.04-5.91.64-1.04.91-1.63.91-1.63.22-.45.39-.9.54-1.34-.14-1.5-.54-2.94-1.21-4.41-2.39-5.19-8.23-9.62-15.05-13.24Z" fill="#fff" isolation="isolate" opacity=".8" stroke-width="0"/><path d="m67.21,57.18l-30.77-21.53c-.54-.41-1.18-.61-1.82-.61-.54,0-1.01.1-1.52.37-1.01.57-1.68,1.62-1.68,2.84v30.53c0,3.82,2.56,7.2,6.2,8.28,6.72,1.94,16.13,5.09,24.18,9.37l1.29-.72c7.52,3.79,12.5,7.78,14.46,11.7,1.1,2.2,1.27,4.41.51,6.67,0,.02,0,.04,0,.06,3.47-6.32,5.05-13.59,4.31-20.96-1.01-10.45-6.54-19.95-15.16-26Z" fill="#fff" stroke-width="0"/><path d="m77.54,97.41c-1.95-3.92-6.94-7.91-14.46-11.7l-1.29.72c6.81,3.62,12.65,8.05,15.05,13.24.66,1.47,1.07,2.9,1.21,4.41.76-2.26.59-4.47-.51-6.67Z" fill="#fff" stroke-width="0"/><path d="m93.23,99.68c-.67,1.48-1.08,2.93-1.21,4.45.15.43.31.86.53,1.3,0,0,.37.81,1.28,2.23,1.15,1.79,2.62,3.35,4.15,4.82l22.53,21.65c1.41,1.32,3,.88,3.47.68.47-.17,1.99-.91,1.99-2.7v-29.11c0-4.12-2.33-7.95-6.17-10.11l-11.54-6.44c-6.81,3.62-12.64,8.05-15.03,13.24Z" fill="#2973ff" stroke-width="0"/><path d="m93.23,99.68c-.67,1.48-1.08,2.93-1.21,4.45.15.43.31.86.53,1.3,0,0,.37.81,1.28,2.23,1.15,1.79,2.62,3.35,4.15,4.82l22.53,21.65c1.41,1.32,3,.88,3.47.68.47-.17,1.99-.91,1.99-2.7v-29.11c0-4.12-2.33-7.95-6.17-10.11l-11.54-6.44c-6.81,3.62-12.64,8.05-15.03,13.24Z" fill="#fff" isolation="isolate" opacity=".8" stroke-width="0"/><path d="m136.97,35.41c-.51-.27-.98-.37-1.52-.37-.64,0-1.28.2-1.82.61l-30.77,21.53c-8.63,6.05-14.15,15.55-15.16,26-.74,7.37.84,14.64,4.31,20.96,0,0,0,0,0-.01-.77-2.28-.61-4.5.49-6.71,1.96-3.92,6.94-7.91,14.46-11.7l1.3.72c8.05-4.28,17.47-7.44,24.19-9.38,3.64-1.08,6.2-4.46,6.2-8.28v-30.53c0-1.22-.67-2.27-1.69-2.84Z" fill="#fff" stroke-width="0"/><path d="m92.52,97.41c-1.11,2.22-1.27,4.44-.49,6.71.14-1.52.54-2.97,1.21-4.45,2.39-5.19,8.23-9.61,15.03-13.24l-1.3-.72c-7.51,3.79-12.5,7.78-14.46,11.7Z" fill="#fff" stroke-width="0"/></svg>