<?xml version="1.0" encoding="UTF-8"?><svg id="a" xmlns="http://www.w3.org/2000/svg" viewBox="0 0 170.08 170.08"><circle cx="85.04" cy="85.04" r="85.04" fill="#fff" stroke-width="0"/><g id="b"><g id="c"><path d="m85.04,31.89c23.48,0,42.52,19.04,42.52,42.52,0,22.07-16.82,40.22-38.34,42.32.12-1.52.1-3.06-.08-4.58-1.24-10.8-9.75-19.33-20.55-20.57v-56.33l-.02-.05c5.06-2.13,10.63-3.31,16.46-3.31Z" fill="#dedede" stroke-width="0"/><path d="m63.28,91.57v-53.65l-.02-.03c1.71-1.02,3.48-1.92,5.32-2.69l.02.05v56.33c10.8,1.25,19.31,9.77,20.55,20.57.18,1.52.2,3.06.08,4.58-1.37.13-2.77.2-4.18.2-14.76,0-27.77-7.52-35.39-18.94,3.7-3.58,8.48-5.84,13.6-6.42h.03Z" fill="#152e51" stroke-width="0"/><path d="m89.22,116.73c-.89,10.9-9.37,20.02-20.65,21.31-12.83,1.47-24.42-7.74-25.89-20.58-.86-7.51,1.94-14.59,6.98-19.47,7.62,11.42,20.63,18.94,35.39,18.94,1.41,0,2.8-.07,4.18-.2Z" fill="#1e4480" stroke-width="0"/><path d="m63.28,37.92v53.65h-.03c-5.12.58-9.9,2.83-13.6,6.42-4.5-6.75-7.13-14.85-7.13-23.58,0-15.52,8.32-29.1,20.74-36.52l.02.03Z" fill="#dedede" stroke-width="0"/></g></g></svg>