<svg xmlns="http://www.w3.org/2000/svg" width="32" height="36" viewBox="0 0 32 36" fill="none"><mask id="mask0_2761_1170" maskUnits="userSpaceOnUse" x="0" y="0" width="32" height="36" style="mask-type: alpha;"><path d="M14.5076 0.39564C15.4212 -0.13188 16.547 -0.13188 17.4606 0.39564L30.4917 7.91909C31.4053 8.44661 31.9682 9.42151 31.9682 10.4765V25.5235C31.9682 26.5785 31.4053 27.5534 30.4917 28.0809L17.4606 35.6044C16.547 36.1319 15.4212 36.1319 14.5076 35.6044L1.47655 28.0809C0.562857 27.5534 0 26.5785 0 25.5235V10.4765C0 9.42151 0.562857 8.44661 1.47655 7.91909L14.5076 0.39564Z" fill="#0084E4"/><path d="M14.5076 0.39564C15.4212 -0.13188 16.547 -0.13188 17.4606 0.39564L30.4917 7.91909C31.4053 8.44661 31.9682 9.42151 31.9682 10.4765V25.5235C31.9682 26.5785 31.4053 27.5534 30.4917 28.0809L17.4606 35.6044C16.547 36.1319 15.4212 36.1319 14.5076 35.6044L1.47655 28.0809C0.562857 27.5534 0 26.5785 0 25.5235V10.4765C0 9.42151 0.562857 8.44661 1.47655 7.91909L14.5076 0.39564Z" fill="#0040E4"/></mask><g mask="url(#mask0_2761_1170)"><path d="M14.5076 0.39564C15.4212 -0.13188 16.547 -0.13188 17.4606 0.39564L30.4917 7.91909C31.4053 8.44661 31.9682 9.42151 31.9682 10.4765V25.5235C31.9682 26.5785 31.4053 27.5534 30.4917 28.0809L17.4606 35.6044C16.547 36.1319 15.4212 36.1319 14.5076 35.6044L1.47655 28.0809C0.562857 27.5534 0 26.5785 0 25.5235V10.4765C0 9.42151 0.562857 8.44661 1.47655 7.91909L14.5076 0.39564Z" fill="#26C3EF"/><path d="M14.5076 0.39564C15.4212 -0.13188 16.547 -0.13188 17.4606 0.39564L30.4917 7.91909C31.4053 8.44661 31.9682 9.42151 31.9682 10.4765V25.5235C31.9682 26.5785 31.4053 27.5534 30.4917 28.0809L17.4606 35.6044C16.547 36.1319 15.4212 36.1319 14.5076 35.6044L1.47655 28.0809C0.562857 27.5534 0 26.5785 0 25.5235V10.4765C0 9.42151 0.562857 8.44661 1.47655 7.91909L14.5076 0.39564Z" fill="#26C3EF"/><path d="M17.3122 16.8487C23.3956 5.27256 40.1741 8.28471 47.8029 11.2378V43.544H-11.4805V27.0369L-11.306 27.0716C2.67917 29.8542 9.73943 31.259 17.3122 16.8487Z" fill="url(#paint0_linear_2761_1170)"/><path opacity="0.7" d="M15.9104 16.7012C9.82706 5.12509 -6.95144 8.13725 -14.5803 11.0903V43.3965H44.7031V26.8894L44.5286 26.9241C30.5435 29.7068 23.4832 31.1116 15.9104 16.7012Z" fill="url(#paint1_linear_2761_1170)"/></g><defs><linearGradient id="paint0_linear_2761_1170" x1="18.1612" y1="16.6708" x2="18.1612" y2="43.544" gradientUnits="userSpaceOnUse"><stop stop-color="white"/><stop offset="1" stop-color="white" stop-opacity="0"/></linearGradient><linearGradient id="paint1_linear_2761_1170" x1="15.0614" y1="8.40234" x2="15.0983" y2="30.1814" gradientUnits="userSpaceOnUse"><stop stop-color="white"/><stop offset="1" stop-color="white" stop-opacity="0"/></linearGradient></defs></svg>