<svg width="20" height="20" viewBox="0 0 40 41" fill="none" xmlns="http://www.w3.org/2000/svg">
<path d="M39.3971 25.801C36.726 36.5154 25.8741 43.0359 15.1584 40.3641C4.44722 37.693 -2.07335 26.8404 0.598971 16.1268C3.26894 5.41127 14.1209 -1.10979 24.8332 1.56136C35.5481 4.2325 42.0683 15.0863 39.3968 25.8012L39.397 25.801H39.3971Z" fill="#F3BA2F"/>
<path fill-rule="evenodd" clip-rule="evenodd" d="M19.9992 13.6563L14.8203 18.8352L11.8072 15.8216L19.9992 7.62964L28.1939 15.8241L25.1805 18.8374L19.9992 13.6563ZM9.67872 17.9491L6.66528 20.963L9.67851 23.9758L12.6919 20.9623L9.67872 17.9491ZM14.8194 23.0911L19.9983 28.2696L25.1795 23.0886L28.1944 26.1004L28.1929 26.102L19.9983 34.2963L11.802 26.1L14.8194 23.0911ZM30.3193 17.9508L27.3059 20.9642L30.3192 23.9775L33.3326 20.964L30.3193 17.9508Z" fill="white"/>
<path d="M23.0557 20.9613H23.057L19.9995 17.9036L17.7395 20.1629L17.4799 20.4226L16.9445 20.9582L16.9402 20.9623L16.9445 20.9667L19.9995 24.0222L23.0572 20.9645L23.0587 20.9628L23.0559 20.9613" fill="white"/>
</svg>
