<svg width="26" height="26" viewBox="0 0 26 26" fill="none" xmlns="http://www.w3.org/2000/svg">
<path d="M24.9998 11.9029V13.0069C24.9983 15.5945 24.1604 18.1124 22.611 20.185C21.0616 22.2575 18.8838 23.7737 16.4023 24.5074C13.9208 25.2411 11.2686 25.153 8.84129 24.2562C6.41397 23.3595 4.34155 21.7021 2.93313 19.5313C1.52471 17.3605 0.855751 14.7925 1.02601 12.2104C1.19627 9.62837 2.19664 7.17051 3.87791 5.20342C5.55918 3.23634 7.83128 1.86543 10.3553 1.29515C12.8794 0.72487 15.5202 0.98578 17.8838 2.03897" stroke="#07AE3B" stroke-linecap="round" stroke-linejoin="round"/>
<path d="M24.9968 3.40092L15.8254 12.5816C14.2635 14.145 11.7297 14.1456 10.1671 12.583L9.39697 11.8128" stroke="#07AE3B" stroke-linecap="round" stroke-linejoin="round"/>
</svg>
