<svg width="16" height="16" viewBox="0 0 16 16" fill="none" xmlns="http://www.w3.org/2000/svg">
<path d="M13.5 2.5H6.5C5.67157 2.5 5 3.17157 5 4V5H4C3.17157 5 2.5 5.67157 2.5 6.5V13.5C2.5 14.3284 3.17157 15 4 15H11C11.8284 15 12.5 14.3284 12.5 13.5V12.5H13.5C14.3284 12.5 15 11.8284 15 11V4C15 3.17157 14.3284 2.5 13.5 2.5ZM11.5 13.5C11.5 13.7761 11.2761 14 11 14H4C3.72386 14 3.5 13.7761 3.5 13.5V6.5C3.5 6.22386 3.72386 6 4 6H5V11C5 11.8284 5.67157 12.5 6.5 12.5H11.5V13.5ZM14 11C14 11.2761 13.7761 11.5 13.5 11.5H6.5C6.22386 11.5 6 11.2761 6 11V4C6 3.72386 6.22386 3.5 6.5 3.5H13.5C13.7761 3.5 14 3.72386 14 4V11Z" fill="currentColor"/>
</svg>