<svg width="40" height="40" viewBox="0 0 40 40" fill="none" xmlns="http://www.w3.org/2000/svg">
<rect width="40" height="40" rx="6" fill="#10171B"/>
<rect x="0.5" y="0.5" width="39" height="39" rx="5.5" stroke="white" stroke-opacity="0.04"/>
<path fill-rule="evenodd" clip-rule="evenodd" d="M12.2397 16.7996C12.5432 17.0814 13.0177 17.0639 13.2996 16.7603L15.25 14.6599L15.25 23.25C15.25 23.6642 15.5858 24 16 24C16.4142 24 16.75 23.6642 16.75 23.25V14.6599L18.7004 16.7603C18.9823 17.0639 19.4568 17.0814 19.7603 16.7996C20.0639 16.5177 20.0815 16.0432 19.7996 15.7397L16.5496 12.2397C16.4077 12.0868 16.2086 12 16 12C15.7915 12 15.5923 12.0868 15.4504 12.2397L12.2004 15.7397C11.9186 16.0432 11.9361 16.5177 12.2397 16.7996ZM20.2397 23.2004C19.9361 23.4823 19.9186 23.9568 20.2004 24.2603L23.4504 27.7603C23.5923 27.9132 23.7915 28 24 28C24.2086 28 24.4077 27.9132 24.5496 27.7603L27.7996 24.2603C28.0815 23.9568 28.0639 23.4823 27.7603 23.2004C27.4568 22.9186 26.9823 22.9361 26.7004 23.2397L24.75 25.3401V16.75C24.75 16.3358 24.4142 16 24 16C23.5858 16 23.25 16.3358 23.25 16.75V25.3401L21.2996 23.2397C21.0177 22.9361 20.5432 22.9186 20.2397 23.2004Z" fill="#90A0AC" fill-opacity="0.5"/>
</svg>
