<svg width="18" height="19" viewBox="0 0 18 19" fill="none" xmlns="http://www.w3.org/2000/svg">
<path d="M16.2887 9.75209V8.73848L17.5607 7.6255C17.7952 7.41884 17.9491 7.13594 17.9951 6.8268C18.0412 6.51767 17.9765 6.2022 17.8125 5.93615L16.249 3.28619C16.1328 3.08497 15.9658 2.91784 15.7646 2.80156C15.5634 2.68528 15.3352 2.62394 15.1029 2.6237C14.9589 2.6226 14.8157 2.64498 14.6789 2.68995L13.069 3.23319C12.7915 3.04789 12.5015 2.88188 12.2012 2.73633L11.8633 1.06685C11.8027 0.761845 11.6368 0.487863 11.3946 0.292867C11.1523 0.0978707 10.8492 -0.00571476 10.5383 0.000243419H7.43788C7.12698 -0.00571476 6.82388 0.0978707 6.58165 0.292867C6.33941 0.487863 6.17348 0.761845 6.1129 1.06685L5.77503 2.73633C5.47291 2.88251 5.18078 3.04849 4.90055 3.23319L3.32382 2.66345C3.18556 2.62743 3.04238 2.61401 2.89983 2.6237C2.66748 2.62394 2.43927 2.68528 2.23811 2.80156C2.03695 2.91784 1.8699 3.08497 1.75372 3.28619L0.190245 5.93615C0.0356112 6.2018 -0.0218501 6.51295 0.0277026 6.81631C0.0772552 7.11967 0.230738 7.39636 0.461866 7.599L1.71397 8.74511V9.75872L0.461866 10.8717C0.22421 11.0757 0.0665286 11.3574 0.0168042 11.6667C-0.0329202 11.9759 0.0285284 12.2928 0.190245 12.561L1.75372 15.211C1.8699 15.4122 2.03695 15.5794 2.23811 15.6956C2.43927 15.8119 2.66748 15.8733 2.89983 15.8735C3.04382 15.8746 3.18703 15.8522 3.32382 15.8072L4.93367 15.264C5.21124 15.4493 5.50121 15.6153 5.80153 15.7609L6.1394 17.4303C6.19998 17.7354 6.36591 18.0093 6.60814 18.2043C6.85038 18.3993 7.15347 18.5029 7.46438 18.497H10.5913C10.9022 18.5029 11.2053 18.3993 11.4476 18.2043C11.6898 18.0093 11.8557 17.7354 11.9163 17.4303L12.2542 15.7609C12.5563 15.6147 12.8484 15.4487 13.1287 15.264L14.7319 15.8072C14.8687 15.8522 15.0119 15.8746 15.1559 15.8735C15.3882 15.8733 15.6164 15.8119 15.8176 15.6956C16.0188 15.5794 16.1858 15.4122 16.302 15.211L17.8125 12.561C17.9671 12.2954 18.0246 11.9842 17.975 11.6809C17.9255 11.3775 17.772 11.1008 17.5409 10.8982L16.2887 9.75209ZM15.1029 14.5485L12.8306 13.78C12.2983 14.2301 11.6904 14.5823 11.0352 14.8201L10.5648 17.1985H7.43788L6.96752 14.8466C6.31745 14.6021 5.71286 14.2506 5.17879 13.8065L2.89983 14.5485L1.33635 11.8986L3.13832 10.3086C3.01583 9.62281 3.01583 8.92076 3.13832 8.23499L1.33635 6.59864L2.89983 3.94868L5.17217 4.71717C5.70443 4.26707 6.31229 3.91491 6.96752 3.67706L7.43788 1.29872H10.5648L11.0352 3.65056C11.6853 3.89509 12.2899 4.24665 12.8239 4.69067L15.1029 3.94868L16.6664 6.59864L14.8644 8.18862C14.9869 8.87439 14.9869 9.57644 14.8644 10.2622L16.6664 11.8986L15.1029 14.5485Z" fill="white"/>
<path d="M9.00228 13.2233C8.21612 13.2233 7.4476 12.9902 6.79393 12.5534C6.14025 12.1166 5.63077 11.4958 5.32992 10.7695C5.02907 10.0432 4.95035 9.24397 5.10372 8.47291C5.2571 7.70184 5.63567 6.99358 6.19158 6.43767C6.74748 5.88177 7.45575 5.50319 8.22681 5.34982C8.99787 5.19644 9.7971 5.27516 10.5234 5.57601C11.2498 5.87687 11.8706 6.38634 12.3073 7.04002C12.7441 7.6937 12.9772 8.46221 12.9772 9.24838C12.9825 9.77185 12.8834 10.2911 12.6855 10.7758C12.4876 11.2604 12.195 11.7008 11.8248 12.0709C11.4547 12.4411 11.0144 12.7337 10.5297 12.9316C10.045 13.1294 9.52576 13.2286 9.00228 13.2233ZM9.00228 6.59842C8.65206 6.59026 8.30381 6.65323 7.97862 6.78351C7.65342 6.9138 7.35803 7.10869 7.11031 7.35641C6.8626 7.60412 6.6677 7.89951 6.53742 8.22471C6.40713 8.54991 6.34417 8.89815 6.35232 9.24838C6.34417 9.59861 6.40713 9.94685 6.53742 10.272C6.6677 10.5972 6.8626 10.8926 7.11031 11.1403C7.35803 11.3881 7.65342 11.583 7.97862 11.7132C8.30381 11.8435 8.65206 11.9065 9.00228 11.8983C9.35251 11.9065 9.70076 11.8435 10.026 11.7132C10.3511 11.583 10.6465 11.3881 10.8943 11.1403C11.142 10.8926 11.3369 10.5972 11.4671 10.272C11.5974 9.94685 11.6604 9.59861 11.6522 9.24838C11.6604 8.89815 11.5974 8.54991 11.4671 8.22471C11.3369 7.89951 11.142 7.60412 10.8943 7.35641C10.6465 7.10869 10.3511 6.9138 10.026 6.78351C9.70076 6.65323 9.35251 6.59026 9.00228 6.59842Z" fill="white"/>
</svg>
