<svg width="24" height="24" viewBox="0 0 24 24" fill="none" xmlns="http://www.w3.org/2000/svg">
<g clip-path="url(#clip0_3314_4473)">
<path d="M12.513 1.09766C11.868 1.09766 11.28 1.43766 10.106 2.11466L3.675 5.82066C2.56742 6.44604 1.64442 7.35254 0.999178 8.44867C0.353933 9.5448 0.00927692 10.7917 0 12.0637L0 12.2997C0.00934898 13.5699 0.353212 14.8153 0.996967 15.9104C1.64072 17.0055 2.56164 17.9117 3.667 18.5377L7.69 20.8607C10.044 22.2207 11.221 22.9027 12.514 22.9027C13.806 22.9037 14.984 22.2247 17.339 20.8647L21.59 18.4117C22.767 17.7317 23.354 17.3917 23.677 16.8327C24 16.2727 24.001 15.5927 24 14.2327V11.6027C24.0002 11.4202 23.9524 11.2409 23.8614 11.0827C23.7704 10.9246 23.6394 10.7932 23.4815 10.7017C23.3236 10.6102 23.1445 10.5618 22.962 10.5615C22.7796 10.5611 22.6002 10.6088 22.442 10.6997L13.714 15.7237C13.127 16.0607 12.834 16.2307 12.513 16.2307C12.19 16.2307 11.897 16.0627 11.309 15.7247L5.405 12.3317C5.108 12.1607 4.959 12.0757 4.84 12.0607C4.70851 12.0433 4.57497 12.07 4.46027 12.1366C4.34556 12.2032 4.25614 12.3059 4.206 12.4287C4.161 12.5397 4.161 12.7107 4.163 13.0537C4.165 13.3057 4.163 13.4317 4.188 13.5477C4.241 13.8067 4.377 14.0407 4.575 14.2147C4.664 14.2917 4.773 14.3547 4.991 14.4807L11.306 18.1307C11.895 18.4707 12.19 18.6407 12.513 18.6407C12.836 18.6407 13.13 18.4707 13.719 18.1317L21.459 13.6627C21.661 13.5467 21.761 13.4907 21.836 13.5327C21.911 13.5767 21.911 13.6927 21.911 13.9247V15.1177C21.911 15.4577 21.912 15.6277 21.831 15.7667C21.751 15.9067 21.604 15.9907 21.309 16.1607L14.927 19.8457C13.749 20.5257 13.16 20.8657 12.514 20.8657C11.868 20.8657 11.278 20.5257 10.102 19.8437L4.132 16.3917L4.089 16.3667C3.47374 16.007 2.96285 15.4933 2.60669 14.876C2.25054 14.2587 2.06142 13.5593 2.058 12.8467V11.7007C2.05829 11.307 2.16188 10.9202 2.35841 10.5791C2.55495 10.238 2.83756 9.95438 3.178 9.75666C3.47915 9.58235 3.82091 9.49048 4.16887 9.49031C4.51682 9.49013 4.85868 9.58166 5.16 9.75566L10.106 12.6137C11.28 13.2927 11.868 13.6327 12.513 13.6337C13.158 13.6337 13.746 13.2937 14.923 12.6167L22.405 8.31066C22.5712 8.21499 22.7092 8.07722 22.8052 7.91123C22.9011 7.74524 22.9517 7.55689 22.9517 7.36516C22.9517 7.17342 22.9011 6.98507 22.8052 6.81908C22.7092 6.65309 22.5712 6.51532 22.405 6.41966L14.92 2.11066C13.745 1.43566 13.158 1.09766 12.514 1.09766H12.513Z" fill="#E5E5E5"/>
</g>
<defs>
<clipPath id="clip0_3314_4473">
<rect width="24" height="24" fill="white"/>
</clipPath>
</defs>
</svg>