<svg width="20" height="20" viewBox="0 0 20 20" fill="none" xmlns="http://www.w3.org/2000/svg">
<g clip-path="url(#clip0_10508_11042)">
<path d="M0 10C0 4.47715 4.47715 0 10 0C15.5228 0 20 4.47715 20 10C20 15.5228 15.5228 20 10 20C4.47715 20 0 15.5228 0 10Z" fill="white"/>
<path d="M17.3687 9.75457C17.382 10.9454 17.1327 12.0835 16.6429 13.1707C15.9436 14.7189 14.2669 15.9848 12.7359 14.6373C11.4873 13.539 11.2556 11.3094 9.38485 10.983C6.90962 10.683 6.85005 13.5523 5.23299 13.8764C3.43061 14.2425 2.83276 11.2123 2.85923 9.83615C2.88571 8.45998 3.25192 6.52586 4.81825 6.52586C6.62062 6.52586 6.74195 9.25394 9.02968 9.10617C11.2954 8.95181 11.335 6.11345 12.8153 4.89827C14.0927 3.84851 15.595 4.61819 16.3473 5.88188C17.0444 7.05075 17.351 8.42252 17.3665 9.75457H17.3687Z" fill="#0F1A1F"/>
</g>
<defs>
<clipPath id="clip0_10508_11042">
<rect width="20" height="20" fill="white"/>
</clipPath>
</defs>
</svg>
