<svg width="20" height="20" viewBox="0 0 20 20" fill="none" xmlns="http://www.w3.org/2000/svg">
<g clip-path="url(#clip0_10409_707)">
<g clip-path="url(#clip1_10409_707)">
<path d="M18.8343 0.572937L11.3291 6.12625L12.7248 2.8535L18.8343 0.572937Z" fill="#E17726" stroke="#E17726" stroke-width="0.142857" stroke-linecap="round" stroke-linejoin="round"/>
<path d="M1.5238 0.572968L8.96217 6.17811L7.63337 2.85353L1.5238 0.572968Z" fill="#E27625" stroke="#E27625" stroke-width="0.142857" stroke-linecap="round" stroke-linejoin="round"/>
<path d="M16.1331 13.4473L14.1361 16.498L18.4121 17.6753L19.637 13.514L16.1331 13.4473Z" fill="#E27625" stroke="#E27625" stroke-width="0.142857" stroke-linecap="round" stroke-linejoin="round"/>
<path d="M0.729492 13.514L1.94695 17.6753L6.21549 16.498L4.22597 13.4473L0.729492 13.514Z" fill="#E27625" stroke="#E27625" stroke-width="0.142857" stroke-linecap="round" stroke-linejoin="round"/>
<path d="M5.98465 8.2953L4.79688 10.0872L9.0283 10.2797L8.88722 5.72598L5.98465 8.2953Z" fill="#E27625" stroke="#E27625" stroke-width="0.142857" stroke-linecap="round" stroke-linejoin="round"/>
<path d="M14.3737 8.29505L11.4265 5.67389L11.3301 10.2795L15.5614 10.0869L14.3737 8.29505Z" fill="#E27625" stroke="#E27625" stroke-width="0.142857" stroke-linecap="round" stroke-linejoin="round"/>
<path d="M6.21619 16.4993L8.77727 15.2628L6.57253 13.545L6.21619 16.4993Z" fill="#E27625" stroke="#E27625" stroke-width="0.142857" stroke-linecap="round" stroke-linejoin="round"/>
<path d="M11.5824 15.2628L14.1361 16.4993L13.7872 13.545L11.5824 15.2628Z" fill="#E27625" stroke="#E27625" stroke-width="0.142857" stroke-linecap="round" stroke-linejoin="round"/>
<path d="M14.1351 16.5002L11.5814 15.2637L11.7893 16.9223L11.767 17.6257L14.1351 16.5002Z" fill="#D5BFB2" stroke="#D5BFB2" stroke-width="0.142857" stroke-linecap="round" stroke-linejoin="round"/>
<path d="M6.21521 16.5002L8.59075 17.6257L8.5759 16.9223L8.77635 15.2637L6.21521 16.5002Z" fill="#D5BFB2" stroke="#D5BFB2" stroke-width="0.142857" stroke-linecap="round" stroke-linejoin="round"/>
<path d="M8.6345 12.4499L6.51135 11.828L8.01095 11.1393L8.6345 12.4499Z" fill="#233447" stroke="#233447" stroke-width="0.142857" stroke-linecap="round" stroke-linejoin="round"/>
<path d="M11.723 12.4499L12.3466 11.1393L13.8536 11.828L11.723 12.4499Z" fill="#233447" stroke="#233447" stroke-width="0.142857" stroke-linecap="round" stroke-linejoin="round"/>
<path d="M6.21413 16.4979L6.58528 13.4473L4.22461 13.514L6.21413 16.4979Z" fill="#CC6228" stroke="#CC6228" stroke-width="0.142857" stroke-linecap="round" stroke-linejoin="round"/>
<path d="M13.7705 13.4473L14.1343 16.4979L16.1312 13.514L13.7705 13.4473Z" fill="#CC6228" stroke="#CC6228" stroke-width="0.142857" stroke-linecap="round" stroke-linejoin="round"/>
<path d="M15.5605 10.0879L11.3291 10.2804L11.7225 12.4499L12.3461 11.1393L13.8531 11.828L15.5605 10.0879Z" fill="#CC6228" stroke="#CC6228" stroke-width="0.142857" stroke-linecap="round" stroke-linejoin="round"/>
<path d="M6.51073 11.828L8.01027 11.1393L8.63387 12.4499L9.0273 10.2804L4.7959 10.0879L6.51073 11.828Z" fill="#CC6228" stroke="#CC6228" stroke-width="0.142857" stroke-linecap="round" stroke-linejoin="round"/>
<path d="M4.7959 10.0879L6.57013 13.5458L6.51076 11.828L4.7959 10.0879Z" fill="#E27525" stroke="#E27525" stroke-width="0.142857" stroke-linecap="round" stroke-linejoin="round"/>
<path d="M13.8535 11.828L13.7867 13.5458L15.561 10.0879L13.8535 11.828Z" fill="#E27525" stroke="#E27525" stroke-width="0.142857" stroke-linecap="round" stroke-linejoin="round"/>
<path d="M9.02727 10.28L8.63379 12.4495L9.13116 15.0114L9.24253 11.635L9.02727 10.28Z" fill="#E27525" stroke="#E27525" stroke-width="0.142857" stroke-linecap="round" stroke-linejoin="round"/>
<path d="M11.3286 10.28L11.1207 11.6276L11.2247 15.0114L11.722 12.4495L11.3286 10.28Z" fill="#E27525" stroke="#E27525" stroke-width="0.142857" stroke-linecap="round" stroke-linejoin="round"/>
<path d="M11.7223 12.4481L11.225 15.0101L11.5813 15.2619L13.7861 13.544L13.8529 11.8262L11.7223 12.4481Z" fill="#F5841F" stroke="#F5841F" stroke-width="0.142857" stroke-linecap="round" stroke-linejoin="round"/>
<path d="M6.51135 11.8262L6.57078 13.544L8.77552 15.2619L9.13187 15.0101L8.6345 12.4481L6.51135 11.8262Z" fill="#F5841F" stroke="#F5841F" stroke-width="0.142857" stroke-linecap="round" stroke-linejoin="round"/>
<path d="M11.768 17.6262L11.7903 16.9227L11.5973 16.7598H8.7615L8.5759 16.9227L8.59075 17.6262L6.21521 16.5007L7.0467 17.1819L8.73178 18.3444H11.6196L13.3121 17.1819L14.1361 16.5007L11.768 17.6262Z" fill="#C0AC9D" stroke="#C0AC9D" stroke-width="0.142857" stroke-linecap="round" stroke-linejoin="round"/>
<path d="M11.5818 15.2616L11.2254 15.0098H9.132L8.77565 15.2616L8.5752 16.9201L8.7608 16.7572H11.5966L11.7896 16.9201L11.5818 15.2616Z" fill="#161616" stroke="#161616" stroke-width="0.142857" stroke-linecap="round" stroke-linejoin="round"/>
<path d="M19.1534 6.48905L19.7844 3.42364L18.8342 0.572937L11.5814 5.94117L14.3726 8.29574L18.3145 9.44345L19.1831 8.42905L18.8045 8.15505L19.4058 7.60717L18.9455 7.25174L19.5468 6.79265L19.1534 6.48905Z" fill="#763E1A" stroke="#763E1A" stroke-width="0.142857" stroke-linecap="round" stroke-linejoin="round"/>
<path d="M0.572266 3.42364L1.21069 6.48905L0.802397 6.79265L1.41112 7.25174L0.950866 7.60717L1.55217 8.15505L1.17357 8.42905L2.04212 9.44345L5.98404 8.29574L8.77524 5.94117L1.52248 0.572937L0.572266 3.42364Z" fill="#763E1A" stroke="#763E1A" stroke-width="0.142857" stroke-linecap="round" stroke-linejoin="round"/>
<path d="M18.3151 9.44203L14.3732 8.29431L15.561 10.0862L13.7867 13.5441L16.1326 13.5144H19.6365L18.3151 9.44203Z" fill="#F5841F" stroke="#F5841F" stroke-width="0.142857" stroke-linecap="round" stroke-linejoin="round"/>
<path d="M5.98435 8.29755L2.04248 9.44526L0.728516 13.5177H4.22499L6.57081 13.5473L4.7966 10.0894L5.98435 8.29755Z" fill="#F5841F" stroke="#F5841F" stroke-width="0.142857" stroke-linecap="round" stroke-linejoin="round"/>
<path d="M11.3281 10.2815L11.5805 5.94252L12.7237 2.85486H7.63123L8.77443 5.94252L9.02683 10.2815L9.12334 11.6439L9.13077 15.0129H11.2242L11.2316 11.6439L11.3281 10.2815Z" fill="#F5841F" stroke="#F5841F" stroke-width="0.142857" stroke-linecap="round" stroke-linejoin="round"/>
</g>
</g>
<defs>
<clipPath id="clip0_10409_707">
<rect width="20" height="18.8583" fill="white"/>
</clipPath>
<clipPath id="clip1_10409_707">
<rect width="20" height="18.8571" fill="white"/>
</clipPath>
</defs>
</svg>