<svg width="40" height="41" viewBox="0 0 40 41" fill="none" xmlns="http://www.w3.org/2000/svg">
<g clip-path="url(#clip0_10242_10315)">
<mask id="mask0_10242_10315" style="mask-type:luminance" maskUnits="userSpaceOnUse" x="0" y="0" width="40" height="41">
<path d="M40 0.962891H0V40.9629H40V0.962891Z" fill="white"/>
</mask>
<g mask="url(#mask0_10242_10315)">
<path d="M20 40.9629C31.0457 40.9629 40 32.0086 40 20.9629C40 9.9172 31.0457 0.962891 20 0.962891C8.95431 0.962891 0 9.9172 0 20.9629C0 32.0086 8.95431 40.9629 20 40.9629Z" fill="#2470FF"/>
<path opacity="0.8" d="M11.6575 24.6027V30.5594C11.6575 30.9262 11.9678 31.0783 12.0644 31.1128C12.1609 31.1544 12.485 31.2443 12.7747 30.9746L17.2809 26.644C17.6646 26.2752 18.035 25.8877 18.3134 25.4342C18.4444 25.221 18.4986 25.1009 18.4986 25.1009C18.7746 24.5405 18.7746 24.0008 18.5056 23.4611C18.1057 22.6586 17.0849 21.8422 15.547 21.0674L12.9195 22.534C12.1402 22.9768 11.6575 23.7587 11.6575 24.6027Z" fill="white"/>
<path d="M9.06665 11.354V17.6014C9.06665 18.3831 9.59078 19.075 10.3356 19.2963C12.8735 20.0297 17.294 21.6071 18.3631 23.9247C18.5008 24.2291 18.5836 24.5267 18.6113 24.8379C19.3217 23.5442 19.6457 22.0567 19.4941 20.5486C19.2871 18.4107 18.156 16.4667 16.3907 15.2283L10.0942 10.8213C9.98386 10.7383 9.85284 10.6968 9.72181 10.6968C9.61146 10.6968 9.51492 10.7175 9.41148 10.7729C9.20457 10.8905 9.06665 11.105 9.06665 11.354Z" fill="white"/>
<path opacity="0.8" d="M28.4184 24.6027V30.5594C28.4184 30.9262 28.1081 31.0783 28.0114 31.1128C27.915 31.1544 27.5906 31.2443 27.3012 30.9746L22.69 26.5434C22.3761 26.2417 22.0764 25.9226 21.84 25.557C21.6526 25.2675 21.5772 25.1009 21.5772 25.1009C21.3013 24.5405 21.3013 24.0008 21.5701 23.4611C21.9702 22.6586 22.9909 21.8422 24.5286 21.0674L27.1562 22.534C27.9425 22.9768 28.4184 23.7587 28.4184 24.6027Z" fill="white"/>
<path d="M31.0134 11.3535V17.6008C31.0134 18.3827 30.4891 19.0744 29.7443 19.2959C27.2065 20.0292 22.7861 21.6067 21.717 23.9243C21.579 24.2287 21.4962 24.5262 21.4687 24.8375C20.7583 23.5438 20.4343 22.0563 20.5859 20.5482C20.7927 18.4103 21.9238 16.4663 23.6894 15.2279L29.9858 10.8208C30.0962 10.7378 30.2271 10.6963 30.3582 10.6963C30.4685 10.6963 30.5651 10.717 30.6683 10.7724C30.8754 10.89 31.0134 11.1045 31.0134 11.3535Z" fill="white"/>
</g>
</g>
<defs>
<clipPath id="clip0_10242_10315">
<rect width="40" height="40" fill="white" transform="translate(0 0.962891)"/>
</clipPath>
</defs>
</svg>
