<svg width="40" height="41" viewBox="0 0 40 41" fill="none" xmlns="http://www.w3.org/2000/svg">
<rect y="0.0185547" width="40" height="40" rx="20" fill="white"/>
<path d="M19.9992 8.85156C25.5836 8.85156 30.1106 13.3785 30.1106 18.9629C30.1106 24.2121 26.1108 28.5268 20.993 29.0258C21.0226 28.6633 21.0161 28.2985 20.975 27.9367C20.681 25.3684 18.6566 23.3411 16.089 23.0443V9.64964L16.084 9.63808C17.288 9.13179 18.6111 8.85156 19.9992 8.85156Z" fill="#DEDEDE"/>
<path d="M14.8247 23.0427V10.2851L14.8196 10.2771C15.2255 10.0344 15.648 9.82067 16.0835 9.63794L16.0886 9.6495V23.0441C18.6561 23.341 20.6813 25.3683 20.9745 27.9366C21.0164 28.2984 21.0222 28.6631 20.9926 29.0257C20.6661 29.0575 20.3346 29.0734 19.9995 29.0741C16.4894 29.0741 13.3968 27.2858 11.584 24.5702C12.4629 23.718 13.6005 23.1806 14.8174 23.0434H14.8247V23.0427Z" fill="#152E51"/>
<path d="M20.9936 29.0258C20.7827 31.6186 18.7647 33.7868 16.0823 34.0937C13.0309 34.4426 10.2741 32.252 9.92527 29.2006C9.72088 27.4152 10.3861 25.7302 11.585 24.5703C13.3978 27.2859 16.4904 29.0742 20.0005 29.0742C20.3356 29.0735 20.6664 29.0576 20.9936 29.0258Z" fill="#1E4480"/>
<path d="M14.8264 10.285V23.0427H14.8192C13.6022 23.1799 12.4654 23.7165 11.5857 24.5695C10.5146 22.9647 9.89062 21.037 9.89062 18.9627C9.89062 15.2721 11.8681 12.0422 14.8221 10.2771L14.8264 10.285Z" fill="#DEDEDE"/>
</svg>
