<svg width="12" height="10" viewBox="0 0 12 10" fill="none" xmlns="http://www.w3.org/2000/svg">
<path d="M0.914844 4.372V1.18L1.89484 0.199999H4.12084L5.10084 1.18V4.372L4.12084 5.352H1.89484L0.914844 4.372ZM8.13884 0.199999H9.51084L4.12084 10H2.74884L8.13884 0.199999ZM3.56084 4.344L3.95284 3.966V1.586L3.56084 1.208H2.45484L2.07684 1.586V3.966L2.45484 4.344H3.56084ZM7.11684 9.02V5.828L8.09684 4.848H10.3228L11.3028 5.828V9.02L10.3228 10H8.09684L7.11684 9.02ZM9.76284 8.992L10.1548 8.614V6.234L9.76284 5.856H8.65684L8.27884 6.234V8.614L8.65684 8.992H9.76284Z" fill="white"/>
</svg>
