<svg width="20" height="20" viewBox="0 0 18 18" fill="none" xmlns="http://www.w3.org/2000/svg">
<path fill-rule="evenodd" clip-rule="evenodd" d="M6.83922 0.803885C6.9327 0.33646 7.34312 0 7.8198 0H10.1802C10.6569 0 11.0673 0.33646 11.1608 0.803884L11.4913 2.45629C12.1956 2.72458 12.8454 3.10332 13.4196 3.57133L15.0179 3.03065C15.4694 2.8779 15.966 3.06509 16.2043 3.47791L17.3845 5.52207C17.6229 5.93489 17.5367 6.45855 17.1786 6.77322L15.9119 7.88645C15.9699 8.24909 16 8.62103 16 9C16 9.37897 15.9699 9.7509 15.9119 10.1135L17.1786 11.2268C17.5367 11.5414 17.6229 12.0651 17.3845 12.4779L16.2043 14.5221C15.966 14.9349 15.4694 15.1221 15.0179 14.9693L13.4196 14.4287C12.8454 14.8967 12.1956 15.2754 11.4913 15.5437L11.1608 17.1961C11.0673 17.6635 10.6569 18 10.1802 18H7.8198C7.34312 18 6.9327 17.6635 6.83922 17.1961L6.50874 15.5437C5.80442 15.2754 5.1546 14.8967 4.58042 14.4287L2.98213 14.9694C2.53059 15.1221 2.034 14.9349 1.79566 14.5221L0.615463 12.4779C0.377122 12.0651 0.463297 11.5415 0.821356 11.2268L2.08808 10.1135C2.03011 9.75091 1.99999 9.37897 1.99999 9C1.99999 8.62103 2.03011 8.2491 2.08808 7.88647L0.821356 6.77324C0.463297 6.45857 0.377122 5.93491 0.615462 5.52209L1.79566 3.47793C2.034 3.06511 2.53059 2.87791 2.98213 3.03066L4.58041 3.57134C5.15459 3.10332 5.80442 2.72459 6.50874 2.45629L6.83922 0.803885ZM8.99999 12C10.6568 12 12 10.6569 12 9C12 7.34315 10.6568 6 8.99999 6C7.34314 6 5.99999 7.34315 5.99999 9C5.99999 10.6569 7.34314 12 8.99999 12Z" fill="#90A0AC" fill-opacity="0.5"/>
</svg>
