<svg viewBox="0 0 23 25" fill="none" xmlns="http://www.w3.org/2000/svg">
    <path d="M19.1667 25C18.1019 25 17.1968 24.6354 16.4514 23.9062C15.706 23.1771 15.3333 22.2917 15.3333 21.25C15.3333 21.125 15.3653 20.8333 15.4292 20.375L6.45278 15.25C6.11204 15.5625 5.71806 15.8075 5.27083 15.985C4.82361 16.1625 4.34444 16.2508 3.83333 16.25C2.76852 16.25 1.86343 15.8854 1.11806 15.1562C0.372685 14.4271 0 13.5417 0 12.5C0 11.4583 0.372685 10.5729 1.11806 9.84375C1.86343 9.11458 2.76852 8.75 3.83333 8.75C4.34444 8.75 4.82361 8.83875 5.27083 9.01625C5.71806 9.19375 6.11204 9.43833 6.45278 9.75L15.4292 4.625C15.3866 4.47917 15.3602 4.33875 15.3499 4.20375C15.3397 4.06875 15.3342 3.9175 15.3333 3.75C15.3333 2.70833 15.706 1.82292 16.4514 1.09375C17.1968 0.364583 18.1019 0 19.1667 0C20.2315 0 21.1366 0.364583 21.8819 1.09375C22.6273 1.82292 23 2.70833 23 3.75C23 4.79167 22.6273 5.67708 21.8819 6.40625C21.1366 7.13542 20.2315 7.5 19.1667 7.5C18.6556 7.5 18.1764 7.41125 17.7292 7.23375C17.2819 7.05625 16.888 6.81167 16.5472 6.5L7.57083 11.625C7.61343 11.7708 7.64026 11.9117 7.65133 12.0475C7.66241 12.1833 7.66752 12.3342 7.66667 12.5C7.66581 12.6658 7.6607 12.8171 7.65133 12.9537C7.64196 13.0904 7.61513 13.2308 7.57083 13.375L16.5472 18.5C16.888 18.1875 17.2819 17.9429 17.7292 17.7662C18.1764 17.5896 18.6556 17.5008 19.1667 17.5C20.2315 17.5 21.1366 17.8646 21.8819 18.5938C22.6273 19.3229 23 20.2083 23 21.25C23 22.2917 22.6273 23.1771 21.8819 23.9062C21.1366 24.6354 20.2315 25 19.1667 25Z" fill="white"/>
</svg>
