<svg width="20" height="20" viewBox="0 0 20 20" fill="none" xmlns="http://www.w3.org/2000/svg">
<path d="M20 10C20 11.996 19.4027 13.9464 18.2849 15.6001C17.1671 17.2538 15.58 18.5351 13.7278 19.2792C11.8757 20.0233 9.84324 20.1961 7.89206 19.7753C5.94089 19.3546 4.16027 18.3595 2.77936 16.9183C1.39846 15.477 0.480459 13.6555 0.143512 11.6881C-0.193435 9.72071 0.0660867 7.6975 0.888678 5.87886C1.71127 4.06021 3.05929 2.52935 4.75925 1.48328C6.45921 0.437211 8.43332 -0.0761923 10.4275 0.0091431L10.3823 1.06599C8.59905 0.989677 6.83376 1.44877 5.31362 2.38419C3.79348 3.3196 2.58806 4.68853 1.85248 6.3148C1.11691 7.94106 0.884836 9.75025 1.18614 11.5095C1.48745 13.2688 2.30834 14.8976 3.54317 16.1864C4.778 17.4752 6.37026 18.365 8.11504 18.7413C9.85983 19.1175 11.6773 18.963 13.3335 18.2976C14.9897 17.6322 16.4089 16.4864 17.4085 15.0077C18.408 13.5289 18.9422 11.7849 18.9422 10H20Z" fill="#20B0FD"/>
</svg>
