<svg width="33" height="33" viewBox="0 0 33 33" fill="none" xmlns="http://www.w3.org/2000/svg">
<path fill-rule="evenodd" clip-rule="evenodd" d="M0.25 16.5C0.25 7.52537 7.52537 0.25 16.5 0.25C25.4746 0.25 32.75 7.52537 32.75 16.5C32.75 25.4746 25.4746 32.75 16.5 32.75C7.52537 32.75 0.25 25.4746 0.25 16.5ZM22.5172 13.4765C22.9184 12.9148 22.7883 12.1341 22.2265 11.7328C21.6648 11.3316 20.8841 11.4617 20.4828 12.0235L15.0905 19.5727L12.3839 16.8661C11.8957 16.378 11.1043 16.378 10.6161 16.8661C10.128 17.3543 10.128 18.1457 10.6161 18.6339L14.3661 22.3839C14.6259 22.6437 14.9869 22.776 15.3531 22.7457C15.7193 22.7154 16.0536 22.5255 16.2672 22.2265L22.5172 13.4765Z" fill="#3BEF80"/>
</svg>
