<svg width="33" height="33" viewBox="0 0 33 33" fill="none" xmlns="http://www.w3.org/2000/svg">
<path fill-rule="evenodd" clip-rule="evenodd" d="M0.25 16.5C0.25 7.52537 7.52537 0.25 16.5 0.25C25.4746 0.25 32.75 7.52537 32.75 16.5C32.75 25.4746 25.4746 32.75 16.5 32.75C7.52537 32.75 0.25 25.4746 0.25 16.5ZM16.5 10.25C17.1904 10.25 17.75 10.8096 17.75 11.5V17.75C17.75 18.4404 17.1904 19 16.5 19C15.8096 19 15.25 18.4404 15.25 17.75V11.5C15.25 10.8096 15.8096 10.25 16.5 10.25ZM16.5 24C17.1904 24 17.75 23.4404 17.75 22.75C17.75 22.0596 17.1904 21.5 16.5 21.5C15.8096 21.5 15.25 22.0596 15.25 22.75C15.25 23.4404 15.8096 24 16.5 24Z" fill="#EA511D"/>
</svg>
