<?xml version="1.0" encoding="UTF-8"?><svg id="a" xmlns="http://www.w3.org/2000/svg" viewBox="0 0 170.08 170.08"><circle cx="85.04" cy="85.04" r="85.04" fill="#3b82f6" stroke-width="0"/><path d="m74.11,15.03C35.51,21.05,9,57.37,15.03,95.97c6.03,38.6,42.34,65.11,80.94,59.08,38.6-6.03,65.11-42.34,59.08-80.94-6.03-38.6-42.34-65.11-80.94-59.08Zm1.43,9.15c4.4-.69,8.76-.89,13.03-.64-5.59,6.9-14.02,14-26.71,19.32-12,5.03-24.31,10.19-33.76,18.72,7.95-19.21,25.43-33.97,47.44-37.4ZM24.18,94.54c-.52-3.31-.76-6.61-.74-9.86,1.14-3.21,2.6-6.14,4.38-8.8,8.09-12.11,22.44-18.12,37.62-24.48,17.3-7.24,27.56-17.58,33.56-26.35,3.2.75,6.32,1.75,9.33,2.99-.82,2.57-2.13,5.87-4.26,9.55-4.56,7.9-13.86,19.2-32.33,28.17-12.26,5.96-27.51,13.38-36.52,30.04-2.5,4.62-4.45,9.79-5.88,15.56-2.46-5.21-4.23-10.85-5.17-16.82Zm12.44,28.55c4.01-31.9,21.23-40.28,39.18-49.01,16.38-7.97,26.54-17.66,32.84-26.45-2.66,14.72-9.48,28.74-20.38,41.82-11.17,13.41-22.25,29.75-19.65,49.32.26,1.99.67,3.97,1.21,5.95-13.15-3.37-24.84-11.04-33.2-21.63Zm58.75-27.71c19.44-23.32,23.66-46.14,23.79-61.17,0-.14,0-.27,0-.41,10.37,6.91,18.63,16.92,23.3,28.95-.6,3.83-1.79,9.22-4.17,15.13-6.06,15.06-16.59,26.32-31.3,33.47-9.98,4.85-20.92,10.83-29.5,21.28.14-13.9,8.58-26.08,17.88-37.24Zm-.83,50.52c-4.86.76-9.68.92-14.38.55-.12-.29-.23-.58-.33-.88,6.89-12.19,17.51-19.22,31.22-25.89,20.47-9.95,30.59-25.69,35.53-37.57,1.5,31.01-20.67,58.89-52.03,63.78Z" stroke-width="0"/></svg>