<?xml version="1.0" encoding="UTF-8"?><svg id="a" xmlns="http://www.w3.org/2000/svg" xmlns:xlink="http://www.w3.org/1999/xlink" viewBox="0 0 288.53 286.06"><defs><radialGradient id="b" cx="-703.31" cy="901.2" fx="-703.31" fy="901.2" r=".72" gradientTransform="translate(260958.75 289211.09) rotate(90) scale(411.15 289.41)" gradientUnits="userSpaceOnUse"><stop offset=".03" stop-color="#3a3a3a"/><stop offset="1" stop-color="#1c1c1c"/></radialGradient><linearGradient id="c" x1="143.03" y1="2435.5" x2="143.03" y2="2721.56" gradientTransform="translate(0 -2435.5)" gradientUnits="userSpaceOnUse"><stop offset="0" stop-color="#fff"/><stop offset="1" stop-color="#111"/></linearGradient><linearGradient id="d" x1="364.37" y1="-319.21" x2="490.1" y2="-319.21" gradientTransform="translate(-93.54 -204.54) rotate(90)" gradientUnits="userSpaceOnUse"><stop offset="0" stop-color="#fff"/><stop offset="1" stop-color="#000"/></linearGradient><linearGradient id="e" x1="425.13" y1="-259.64" x2="546.56" y2="-259.64" gradientTransform="translate(-33.97 -263.15) rotate(90)" gradientUnits="userSpaceOnUse"><stop offset="0" stop-color="#484848"/><stop offset=".21" stop-color="#454545"/><stop offset="1" stop-color="#000"/></linearGradient></defs><path d="m143.03,5.09h0c76.21,0,137.94,61.73,137.94,137.94h0c0,76.13-61.73,137.94-137.94,137.94h0c-76.21,0-137.94-61.8-137.94-137.94h0C5.09,66.82,66.82,5.09,143.03,5.09Z" fill="#111" stroke="#111" stroke-width="5.08"/><path d="m143.03,2.57h0C65.45,2.57,2.57,65.45,2.57,143.03h0c0,77.58,62.88,140.46,140.46,140.46h0c77.58,0,140.46-62.88,140.46-140.46h0C283.49,65.45,220.6,2.57,143.03,2.57Z" fill="url(#b)" fill-opacity=".7" stroke-width="0"/><path d="m143.03,2.57h0C65.45,2.57,2.57,65.45,2.57,143.03h0c0,77.58,62.88,140.46,140.46,140.46h0c77.58,0,140.46-62.88,140.46-140.46h0C283.49,65.45,220.6,2.57,143.03,2.57Z" fill="none" stroke="url(#c)" stroke-width="5.14"/><path d="m120.56,27.42c-54.24,10.44-95.22,58.2-95.22,115.46s40.98,105.02,95.22,115.46v-11.02c-48.26-10.3-84.42-53.16-84.42-104.44S72.3,48.74,120.56,38.44v-11.02Zm44.95,11.09v-11.02c54.17,10.52,95.01,58.2,95.01,115.39s-40.84,104.87-95.01,115.39v-11.02c48.12-10.37,84.2-53.16,84.2-104.37s-36.09-94-84.2-104.37Z" fill="#fff" fill-rule="evenodd" stroke-width="0"/><path d="m159.67,139c9,1.73,15.92,5.04,20.89,9.87,4.97,4.75,7.42,10.88,7.42,18.3v11.74c0,8.93-3.24,16.13-9.65,21.61-6.41,5.4-14.91,8.07-25.35,8.07h-3.6v18.66h-12.39v-18.66h-3.82c-6.91,0-12.97-1.51-18.3-4.61-5.26-3.17-9.44-7.56-12.39-13.18-2.88-5.76-4.32-12.32-4.32-19.81h12.39c0,7.56,2.09,13.76,6.19,18.51,4.25,4.61,9.87,6.99,16.71,6.99h19.16c6.77,0,12.24-1.58,16.42-4.75,4.11-3.31,6.19-7.56,6.19-12.82v-11.74c0-4.18-1.58-7.71-4.68-10.66-3.03-2.95-7.13-4.83-12.39-5.69l-31.04-5.47c-8.72-1.58-15.56-4.9-20.38-9.87-4.83-5.04-7.27-11.31-7.27-18.87v-9.87c0-8.93,3.1-15.99,9.29-21.25,6.34-5.4,14.69-8.07,24.99-8.07h3.1v-18.66h12.39v18.66h3.96c9.8,0,17.65,3.17,23.63,9.51,5.98,6.19,9,14.48,9,24.71h-12.39c0-6.7-1.87-12.1-5.55-16.13-3.67-4.03-8.57-6.05-14.69-6.05h-19.52c-6.55,0-11.81,1.58-15.7,4.75-3.89,3.03-5.83,7.2-5.83,12.46v9.87c0,4.25,1.44,7.85,4.32,10.8,3.03,2.95,7.06,4.9,12.24,5.83l30.97,5.83Z" fill="#fff" stroke-width="0"/><circle cx="225.67" cy="222.69" r="61.8" fill="#c5c5c5" stroke="url(#d)" stroke-miterlimit="10" stroke-width="2.15"/><circle cx="225.67" cy="222.69" r="60.71" fill="url(#e)" stroke-width="0"/><polygon points="204.61 232.1 204.61 198.77 246.66 179.15 246.66 197.41 219.96 210.42 219.96 225.31 204.61 232.1" fill="#fff" stroke-width="0"/><polygon points="246.66 213.22 246.66 246.54 204.61 266.19 204.61 247.95 231.33 234.94 231.33 220.02 246.66 213.22" fill="#fff" stroke-width="0"/></svg>