<svg width="40" height="40" viewBox="0 0 40 40" fill="none" xmlns="http://www.w3.org/2000/svg">
<path d="M20.0013 0C8.95361 0 0 8.95393 0 20C0 31.0461 8.95361 40 20 40C31.0451 40 40 31.0461 40 20C40 8.95393 31.0464 0 20.0013 0Z" fill="url(#paint0_radial_10365_32051)"/>
<path d="M22.1262 19.2275L26.8912 16.9187V27.4825L13.7513 33.6213V27.8875L22.1262 24.125V19.2275ZM18.515 20.8138L13.75 22.9525V12.3525L26.89 6.25V11.9837L18.515 16.0437V20.8138Z" fill="white"/>
<path d="M38.994 20C38.9937 9.51222 30.4925 1.00906 20.0018 1.00873C9.50839 1.00873 1.00628 9.51206 1.00598 20C1.00598 30.488 9.50731 38.9922 19.9994 38.9925C30.4905 38.9925 38.994 30.4882 38.994 20ZM40 20C40 31.0474 31.0429 40 19.9994 40C8.95488 39.9997 0 31.0472 0 20C0.000297977 8.95283 8.95601 0 20.0018 0C31.0449 0.000328921 39.9997 8.95307 40 20Z" fill="white"/>
<defs>
<radialGradient id="paint0_radial_10365_32051" cx="0" cy="0" r="1" gradientUnits="userSpaceOnUse" gradientTransform="translate(20.7191 6.51547) scale(42.1697)">
<stop stop-color="#1D303B"/>
<stop offset="1" stop-color="#162633"/>
</radialGradient>
</defs>
</svg>
