<?xml version="1.0" encoding="UTF-8"?><svg id="a" xmlns="http://www.w3.org/2000/svg" viewBox="0 0 33.44 33.44"><path d="m16.72,0h0C7.49,0,0,7.49,0,16.72h0c0,9.24,7.49,16.72,16.72,16.72h0c9.24,0,16.72-7.49,16.72-16.72h0c.01-9.23-7.48-16.72-16.72-16.72Z" fill="#fff" stroke-width="0"/><path d="m16.72.54h0C7.78.54.54,7.78.54,16.72h0c0,8.94,7.25,16.19,16.19,16.19h0c8.94,0,16.19-7.25,16.19-16.19h0c-.01-8.94-7.25-16.18-16.2-16.18Z" fill="#02b875" stroke-width="0"/><path d="m18.23,16.16l3.98-1.93v8.84l-10.97,5.14v-4.8l6.99-3.15v-4.1Z" fill="#fff" stroke-width="0"/><path d="m15.22,17.48l-3.98,1.79v-8.87l10.97-5.11v4.8l-6.99,3.4s0,3.99,0,3.99Z" fill="#fff" stroke-width="0"/></svg>