<svg width="40" height="41" viewBox="0 0 40 41" fill="none" xmlns="http://www.w3.org/2000/svg">
<g clip-path="url(#clip0_10155_1028)">
<path d="M20 0.0185547C31.0496 0.0185547 40 8.96895 40 20.0186C40 31.0577 31.0496 40.0186 20 40.0186C8.95039 40.0186 0 31.0577 0 20.0186C0 8.96895 8.95039 0.0185547 20 0.0185547Z" fill="url(#paint0_linear_10155_1028)"/>
<path fill-rule="evenodd" clip-rule="evenodd" d="M24.01 2.97525C16.0072 1.08333 7.52695 5.06707 4.03208 12.8433C0.53722 20.6195 3.18827 29.606 9.91626 34.3345L10.5889 32.838C4.66393 28.4939 2.36931 20.4671 5.4993 13.5027C8.62929 6.53834 16.1552 2.9252 23.3374 4.47181L24.01 2.97525ZM29.4366 7.22473L30.1092 5.72817C36.823 10.4621 39.4589 19.43 35.9685 27.1964C32.478 34.9629 24.0217 38.9456 16.0243 37.0679L16.6969 35.5713C23.8639 37.0994 31.3756 33.4916 34.5012 26.537C37.6268 19.5824 35.3376 11.5698 29.4366 7.22473Z" fill="white"/>
<path d="M21.7676 19.32L26.3999 16.9852V27.6681L13.6258 33.876V28.0776L21.7676 24.2727V19.32ZM18.2569 20.9241L13.6245 23.087V12.3674L26.3987 6.19609V11.9945L18.2569 16.1003V20.9241Z" fill="white"/>
</g>
<defs>
<linearGradient id="paint0_linear_10155_1028" x1="0" y1="20.0186" x2="40" y2="20.0186" gradientUnits="userSpaceOnUse">
<stop stop-color="#27EEFC"/>
<stop offset="1" stop-color="#5D28FB"/>
</linearGradient>
<clipPath id="clip0_10155_1028">
<rect width="40" height="40" fill="white" transform="translate(0 0.0185547)"/>
</clipPath>
</defs>
</svg>