<svg viewBox="0 0 194 194" fill="none" xmlns="http://www.w3.org/2000/svg">
<path d="M96.8008 2H96.7972C44.4422 2 2 44.4422 2 96.7972V96.8008C2 149.156 44.4422 191.598 96.7972 191.598H96.8008C149.156 191.598 191.598 149.156 191.598 96.8008V96.7972C191.598 44.4422 149.156 2 96.8008 2Z" fill="#329EE1"/>
<path d="M96.7969 2.5H96.8008C148.88 2.5 191.097 44.7181 191.098 96.7969V96.8008C191.098 148.88 148.88 191.098 96.8008 191.098H96.7969C44.7181 191.097 2.5 148.88 2.5 96.8008V96.7969C2.50019 44.7182 44.7182 2.50019 96.7969 2.5Z" stroke="url(#paint0_linear_4094_1253)" stroke-opacity="0.04"/>
<path d="M96.8008 2H96.7972C44.4422 2 2 44.4422 2 96.7972V96.8008C2 149.156 44.4422 191.598 96.7972 191.598H96.8008C149.156 191.598 191.598 149.156 191.598 96.8008V96.7972C191.598 44.4422 149.156 2 96.8008 2Z" stroke="url(#paint1_linear_4094_1253)" stroke-width="4"/>
<path d="M105.36 92.552L128.646 81.2404L128.646 133.005L64.4358 163.083L64.4358 134.988L105.36 116.55L105.36 92.552Z" fill="white"/>
<path d="M87.7154 100.328L64.4297 110.808L64.4297 58.8679L128.64 28.9648V57.0603L87.7154 76.9553L87.7154 100.328Z" fill="white"/>
<defs>
<linearGradient id="paint0_linear_4094_1253" x1="215" y1="37.5976" x2="22" y2="209.598" gradientUnits="userSpaceOnUse">
<stop stop-color="white"/>
<stop offset="1" stop-color="#CBCBCB"/>
</linearGradient>
<linearGradient id="paint1_linear_4094_1253" x1="215" y1="37.5976" x2="22" y2="209.598" gradientUnits="userSpaceOnUse">
<stop stop-color="white"/>
<stop offset="1" stop-color="#FBFBFB"/>
</linearGradient>
</defs>
</svg>
